%TF.GenerationSoftware,KiCad,Pcbnew,(5.1.5)-3*%
%TF.CreationDate,2021-03-22T20:11:52-05:00*%
%TF.ProjectId,RTL8720DN multi function board,52544c38-3732-4304-944e-206d756c7469,rev?*%
%TF.SameCoordinates,Original*%
%TF.FileFunction,Legend,Top*%
%TF.FilePolarity,Positive*%
%FSLAX46Y46*%
G04 Gerber Fmt 4.6, Leading zero omitted, Abs format (unit mm)*
G04 Created by KiCad (PCBNEW (5.1.5)-3) date 2021-03-22 20:11:52*
%MOMM*%
%LPD*%
G04 APERTURE LIST*
%ADD10C,0.150000*%
%ADD11C,0.120000*%
G04 APERTURE END LIST*
D10*
X159054857Y-102824000D02*
X158997714Y-102795428D01*
X158912000Y-102795428D01*
X158826285Y-102824000D01*
X158769142Y-102881142D01*
X158740571Y-102938285D01*
X158712000Y-103052571D01*
X158712000Y-103138285D01*
X158740571Y-103252571D01*
X158769142Y-103309714D01*
X158826285Y-103366857D01*
X158912000Y-103395428D01*
X158969142Y-103395428D01*
X159054857Y-103366857D01*
X159083428Y-103338285D01*
X159083428Y-103138285D01*
X158969142Y-103138285D01*
X159340571Y-103395428D02*
X159340571Y-102795428D01*
X159683428Y-103395428D01*
X159683428Y-102795428D01*
X159969142Y-103395428D02*
X159969142Y-102795428D01*
X160112000Y-102795428D01*
X160197714Y-102824000D01*
X160254857Y-102881142D01*
X160283428Y-102938285D01*
X160312000Y-103052571D01*
X160312000Y-103138285D01*
X160283428Y-103252571D01*
X160254857Y-103309714D01*
X160197714Y-103366857D01*
X160112000Y-103395428D01*
X159969142Y-103395428D01*
X161096571Y-107367428D02*
X161468000Y-107367428D01*
X161268000Y-107596000D01*
X161353714Y-107596000D01*
X161410857Y-107624571D01*
X161439428Y-107653142D01*
X161468000Y-107710285D01*
X161468000Y-107853142D01*
X161439428Y-107910285D01*
X161410857Y-107938857D01*
X161353714Y-107967428D01*
X161182285Y-107967428D01*
X161125142Y-107938857D01*
X161096571Y-107910285D01*
X161725142Y-107910285D02*
X161753714Y-107938857D01*
X161725142Y-107967428D01*
X161696571Y-107938857D01*
X161725142Y-107910285D01*
X161725142Y-107967428D01*
X161953714Y-107367428D02*
X162325142Y-107367428D01*
X162125142Y-107596000D01*
X162210857Y-107596000D01*
X162268000Y-107624571D01*
X162296571Y-107653142D01*
X162325142Y-107710285D01*
X162325142Y-107853142D01*
X162296571Y-107910285D01*
X162268000Y-107938857D01*
X162210857Y-107967428D01*
X162039428Y-107967428D01*
X161982285Y-107938857D01*
X161953714Y-107910285D01*
X162496571Y-107367428D02*
X162696571Y-107967428D01*
X162896571Y-107367428D01*
X162953714Y-108024571D02*
X163410857Y-108024571D01*
X163668000Y-107367428D02*
X163782285Y-107367428D01*
X163839428Y-107396000D01*
X163896571Y-107453142D01*
X163925142Y-107567428D01*
X163925142Y-107767428D01*
X163896571Y-107881714D01*
X163839428Y-107938857D01*
X163782285Y-107967428D01*
X163668000Y-107967428D01*
X163610857Y-107938857D01*
X163553714Y-107881714D01*
X163525142Y-107767428D01*
X163525142Y-107567428D01*
X163553714Y-107453142D01*
X163610857Y-107396000D01*
X163668000Y-107367428D01*
X164182285Y-107367428D02*
X164182285Y-107853142D01*
X164210857Y-107910285D01*
X164239428Y-107938857D01*
X164296571Y-107967428D01*
X164410857Y-107967428D01*
X164468000Y-107938857D01*
X164496571Y-107910285D01*
X164525142Y-107853142D01*
X164525142Y-107367428D01*
X164725142Y-107367428D02*
X165068000Y-107367428D01*
X164896571Y-107967428D02*
X164896571Y-107367428D01*
X160344000Y-92635428D02*
X160058285Y-92635428D01*
X160029714Y-92921142D01*
X160058285Y-92892571D01*
X160115428Y-92864000D01*
X160258285Y-92864000D01*
X160315428Y-92892571D01*
X160344000Y-92921142D01*
X160372571Y-92978285D01*
X160372571Y-93121142D01*
X160344000Y-93178285D01*
X160315428Y-93206857D01*
X160258285Y-93235428D01*
X160115428Y-93235428D01*
X160058285Y-93206857D01*
X160029714Y-93178285D01*
X160544000Y-92635428D02*
X160744000Y-93235428D01*
X160944000Y-92635428D01*
X161001142Y-93292571D02*
X161458285Y-93292571D01*
X161715428Y-92635428D02*
X161829714Y-92635428D01*
X161886857Y-92664000D01*
X161944000Y-92721142D01*
X161972571Y-92835428D01*
X161972571Y-93035428D01*
X161944000Y-93149714D01*
X161886857Y-93206857D01*
X161829714Y-93235428D01*
X161715428Y-93235428D01*
X161658285Y-93206857D01*
X161601142Y-93149714D01*
X161572571Y-93035428D01*
X161572571Y-92835428D01*
X161601142Y-92721142D01*
X161658285Y-92664000D01*
X161715428Y-92635428D01*
X162229714Y-92635428D02*
X162229714Y-93121142D01*
X162258285Y-93178285D01*
X162286857Y-93206857D01*
X162344000Y-93235428D01*
X162458285Y-93235428D01*
X162515428Y-93206857D01*
X162544000Y-93178285D01*
X162572571Y-93121142D01*
X162572571Y-92635428D01*
X162772571Y-92635428D02*
X163115428Y-92635428D01*
X162944000Y-93235428D02*
X162944000Y-92635428D01*
X144810285Y-91203428D02*
X144810285Y-90603428D01*
X145038857Y-90603428D01*
X145096000Y-90632000D01*
X145124571Y-90660571D01*
X145153142Y-90717714D01*
X145153142Y-90803428D01*
X145124571Y-90860571D01*
X145096000Y-90889142D01*
X145038857Y-90917714D01*
X144810285Y-90917714D01*
X145381714Y-91032000D02*
X145667428Y-91032000D01*
X145324571Y-91203428D02*
X145524571Y-90603428D01*
X145724571Y-91203428D01*
X145896000Y-90660571D02*
X145924571Y-90632000D01*
X145981714Y-90603428D01*
X146124571Y-90603428D01*
X146181714Y-90632000D01*
X146210285Y-90660571D01*
X146238857Y-90717714D01*
X146238857Y-90774857D01*
X146210285Y-90860571D01*
X145867428Y-91203428D01*
X146238857Y-91203428D01*
X146753142Y-90603428D02*
X146638857Y-90603428D01*
X146581714Y-90632000D01*
X146553142Y-90660571D01*
X146496000Y-90746285D01*
X146467428Y-90860571D01*
X146467428Y-91089142D01*
X146496000Y-91146285D01*
X146524571Y-91174857D01*
X146581714Y-91203428D01*
X146696000Y-91203428D01*
X146753142Y-91174857D01*
X146781714Y-91146285D01*
X146810285Y-91089142D01*
X146810285Y-90946285D01*
X146781714Y-90889142D01*
X146753142Y-90860571D01*
X146696000Y-90832000D01*
X146581714Y-90832000D01*
X146524571Y-90860571D01*
X146496000Y-90889142D01*
X146467428Y-90946285D01*
X142513142Y-91203428D02*
X142513142Y-90603428D01*
X142741714Y-90603428D01*
X142798857Y-90632000D01*
X142827428Y-90660571D01*
X142856000Y-90717714D01*
X142856000Y-90803428D01*
X142827428Y-90860571D01*
X142798857Y-90889142D01*
X142741714Y-90917714D01*
X142513142Y-90917714D01*
X143313142Y-90889142D02*
X143398857Y-90917714D01*
X143427428Y-90946285D01*
X143456000Y-91003428D01*
X143456000Y-91089142D01*
X143427428Y-91146285D01*
X143398857Y-91174857D01*
X143341714Y-91203428D01*
X143113142Y-91203428D01*
X143113142Y-90603428D01*
X143313142Y-90603428D01*
X143370285Y-90632000D01*
X143398857Y-90660571D01*
X143427428Y-90717714D01*
X143427428Y-90774857D01*
X143398857Y-90832000D01*
X143370285Y-90860571D01*
X143313142Y-90889142D01*
X143113142Y-90889142D01*
X143684571Y-90660571D02*
X143713142Y-90632000D01*
X143770285Y-90603428D01*
X143913142Y-90603428D01*
X143970285Y-90632000D01*
X143998857Y-90660571D01*
X144027428Y-90717714D01*
X144027428Y-90774857D01*
X143998857Y-90860571D01*
X143656000Y-91203428D01*
X144027428Y-91203428D01*
X139973142Y-91203428D02*
X139973142Y-90603428D01*
X140201714Y-90603428D01*
X140258857Y-90632000D01*
X140287428Y-90660571D01*
X140316000Y-90717714D01*
X140316000Y-90803428D01*
X140287428Y-90860571D01*
X140258857Y-90889142D01*
X140201714Y-90917714D01*
X139973142Y-90917714D01*
X140773142Y-90889142D02*
X140858857Y-90917714D01*
X140887428Y-90946285D01*
X140916000Y-91003428D01*
X140916000Y-91089142D01*
X140887428Y-91146285D01*
X140858857Y-91174857D01*
X140801714Y-91203428D01*
X140573142Y-91203428D01*
X140573142Y-90603428D01*
X140773142Y-90603428D01*
X140830285Y-90632000D01*
X140858857Y-90660571D01*
X140887428Y-90717714D01*
X140887428Y-90774857D01*
X140858857Y-90832000D01*
X140830285Y-90860571D01*
X140773142Y-90889142D01*
X140573142Y-90889142D01*
X141487428Y-91203428D02*
X141144571Y-91203428D01*
X141316000Y-91203428D02*
X141316000Y-90603428D01*
X141258857Y-90689142D01*
X141201714Y-90746285D01*
X141144571Y-90774857D01*
D11*
X120550000Y-90420000D02*
X120550000Y-108712000D01*
X120550000Y-108712000D02*
X115400000Y-108712000D01*
X115400000Y-90420000D02*
X120550000Y-90420000D01*
X115400000Y-108712000D02*
X115400000Y-113885000D01*
D10*
X124225142Y-113555428D02*
X124225142Y-112955428D01*
X124453714Y-112955428D01*
X124510857Y-112984000D01*
X124539428Y-113012571D01*
X124568000Y-113069714D01*
X124568000Y-113155428D01*
X124539428Y-113212571D01*
X124510857Y-113241142D01*
X124453714Y-113269714D01*
X124225142Y-113269714D01*
X125025142Y-113241142D02*
X125110857Y-113269714D01*
X125139428Y-113298285D01*
X125168000Y-113355428D01*
X125168000Y-113441142D01*
X125139428Y-113498285D01*
X125110857Y-113526857D01*
X125053714Y-113555428D01*
X124825142Y-113555428D01*
X124825142Y-112955428D01*
X125025142Y-112955428D01*
X125082285Y-112984000D01*
X125110857Y-113012571D01*
X125139428Y-113069714D01*
X125139428Y-113126857D01*
X125110857Y-113184000D01*
X125082285Y-113212571D01*
X125025142Y-113241142D01*
X124825142Y-113241142D01*
X125368000Y-112955428D02*
X125739428Y-112955428D01*
X125539428Y-113184000D01*
X125625142Y-113184000D01*
X125682285Y-113212571D01*
X125710857Y-113241142D01*
X125739428Y-113298285D01*
X125739428Y-113441142D01*
X125710857Y-113498285D01*
X125682285Y-113526857D01*
X125625142Y-113555428D01*
X125453714Y-113555428D01*
X125396571Y-113526857D01*
X125368000Y-113498285D01*
X121442285Y-113555428D02*
X121442285Y-112955428D01*
X121670857Y-112955428D01*
X121728000Y-112984000D01*
X121756571Y-113012571D01*
X121785142Y-113069714D01*
X121785142Y-113155428D01*
X121756571Y-113212571D01*
X121728000Y-113241142D01*
X121670857Y-113269714D01*
X121442285Y-113269714D01*
X122013714Y-113384000D02*
X122299428Y-113384000D01*
X121956571Y-113555428D02*
X122156571Y-112955428D01*
X122356571Y-113555428D01*
X122870857Y-113555428D02*
X122528000Y-113555428D01*
X122699428Y-113555428D02*
X122699428Y-112955428D01*
X122642285Y-113041142D01*
X122585142Y-113098285D01*
X122528000Y-113126857D01*
X123070857Y-112955428D02*
X123442285Y-112955428D01*
X123242285Y-113184000D01*
X123328000Y-113184000D01*
X123385142Y-113212571D01*
X123413714Y-113241142D01*
X123442285Y-113298285D01*
X123442285Y-113441142D01*
X123413714Y-113498285D01*
X123385142Y-113526857D01*
X123328000Y-113555428D01*
X123156571Y-113555428D01*
X123099428Y-113526857D01*
X123070857Y-113498285D01*
X132102285Y-109491428D02*
X132102285Y-108891428D01*
X132445142Y-109491428D01*
X132445142Y-108891428D01*
X132845142Y-108891428D02*
X132959428Y-108891428D01*
X133016571Y-108920000D01*
X133073714Y-108977142D01*
X133102285Y-109091428D01*
X133102285Y-109291428D01*
X133073714Y-109405714D01*
X133016571Y-109462857D01*
X132959428Y-109491428D01*
X132845142Y-109491428D01*
X132788000Y-109462857D01*
X132730857Y-109405714D01*
X132702285Y-109291428D01*
X132702285Y-109091428D01*
X132730857Y-108977142D01*
X132788000Y-108920000D01*
X132845142Y-108891428D01*
X128560571Y-109491428D02*
X128560571Y-108891428D01*
X128903428Y-109491428D01*
X128903428Y-108891428D01*
X129532000Y-109434285D02*
X129503428Y-109462857D01*
X129417714Y-109491428D01*
X129360571Y-109491428D01*
X129274857Y-109462857D01*
X129217714Y-109405714D01*
X129189142Y-109348571D01*
X129160571Y-109234285D01*
X129160571Y-109148571D01*
X129189142Y-109034285D01*
X129217714Y-108977142D01*
X129274857Y-108920000D01*
X129360571Y-108891428D01*
X129417714Y-108891428D01*
X129503428Y-108920000D01*
X129532000Y-108948571D01*
X136194857Y-112476000D02*
X136137714Y-112447428D01*
X136052000Y-112447428D01*
X135966285Y-112476000D01*
X135909142Y-112533142D01*
X135880571Y-112590285D01*
X135852000Y-112704571D01*
X135852000Y-112790285D01*
X135880571Y-112904571D01*
X135909142Y-112961714D01*
X135966285Y-113018857D01*
X136052000Y-113047428D01*
X136109142Y-113047428D01*
X136194857Y-113018857D01*
X136223428Y-112990285D01*
X136223428Y-112790285D01*
X136109142Y-112790285D01*
X136480571Y-113047428D02*
X136480571Y-112447428D01*
X136823428Y-113047428D01*
X136823428Y-112447428D01*
X137109142Y-113047428D02*
X137109142Y-112447428D01*
X137252000Y-112447428D01*
X137337714Y-112476000D01*
X137394857Y-112533142D01*
X137423428Y-112590285D01*
X137452000Y-112704571D01*
X137452000Y-112790285D01*
X137423428Y-112904571D01*
X137394857Y-112961714D01*
X137337714Y-113018857D01*
X137252000Y-113047428D01*
X137109142Y-113047428D01*
X167090857Y-94159428D02*
X166805142Y-94159428D01*
X166776571Y-94445142D01*
X166805142Y-94416571D01*
X166862285Y-94388000D01*
X167005142Y-94388000D01*
X167062285Y-94416571D01*
X167090857Y-94445142D01*
X167119428Y-94502285D01*
X167119428Y-94645142D01*
X167090857Y-94702285D01*
X167062285Y-94730857D01*
X167005142Y-94759428D01*
X166862285Y-94759428D01*
X166805142Y-94730857D01*
X166776571Y-94702285D01*
X167233714Y-94816571D02*
X167690857Y-94816571D01*
X167776571Y-94159428D02*
X168148000Y-94159428D01*
X167948000Y-94388000D01*
X168033714Y-94388000D01*
X168090857Y-94416571D01*
X168119428Y-94445142D01*
X168148000Y-94502285D01*
X168148000Y-94645142D01*
X168119428Y-94702285D01*
X168090857Y-94730857D01*
X168033714Y-94759428D01*
X167862285Y-94759428D01*
X167805142Y-94730857D01*
X167776571Y-94702285D01*
X168405142Y-94702285D02*
X168433714Y-94730857D01*
X168405142Y-94759428D01*
X168376571Y-94730857D01*
X168405142Y-94702285D01*
X168405142Y-94759428D01*
X168633714Y-94159428D02*
X169005142Y-94159428D01*
X168805142Y-94388000D01*
X168890857Y-94388000D01*
X168948000Y-94416571D01*
X168976571Y-94445142D01*
X169005142Y-94502285D01*
X169005142Y-94645142D01*
X168976571Y-94702285D01*
X168948000Y-94730857D01*
X168890857Y-94759428D01*
X168719428Y-94759428D01*
X168662285Y-94730857D01*
X168633714Y-94702285D01*
X169176571Y-94159428D02*
X169376571Y-94759428D01*
X169576571Y-94159428D01*
X167690857Y-101300000D02*
X167633714Y-101271428D01*
X167548000Y-101271428D01*
X167462285Y-101300000D01*
X167405142Y-101357142D01*
X167376571Y-101414285D01*
X167348000Y-101528571D01*
X167348000Y-101614285D01*
X167376571Y-101728571D01*
X167405142Y-101785714D01*
X167462285Y-101842857D01*
X167548000Y-101871428D01*
X167605142Y-101871428D01*
X167690857Y-101842857D01*
X167719428Y-101814285D01*
X167719428Y-101614285D01*
X167605142Y-101614285D01*
X167976571Y-101871428D02*
X167976571Y-101271428D01*
X168319428Y-101871428D01*
X168319428Y-101271428D01*
X168605142Y-101871428D02*
X168605142Y-101271428D01*
X168748000Y-101271428D01*
X168833714Y-101300000D01*
X168890857Y-101357142D01*
X168919428Y-101414285D01*
X168948000Y-101528571D01*
X168948000Y-101614285D01*
X168919428Y-101728571D01*
X168890857Y-101785714D01*
X168833714Y-101842857D01*
X168748000Y-101871428D01*
X168605142Y-101871428D01*
X145846857Y-86200000D02*
X145789714Y-86171428D01*
X145704000Y-86171428D01*
X145618285Y-86200000D01*
X145561142Y-86257142D01*
X145532571Y-86314285D01*
X145504000Y-86428571D01*
X145504000Y-86514285D01*
X145532571Y-86628571D01*
X145561142Y-86685714D01*
X145618285Y-86742857D01*
X145704000Y-86771428D01*
X145761142Y-86771428D01*
X145846857Y-86742857D01*
X145875428Y-86714285D01*
X145875428Y-86514285D01*
X145761142Y-86514285D01*
X146132571Y-86771428D02*
X146132571Y-86171428D01*
X146475428Y-86771428D01*
X146475428Y-86171428D01*
X146761142Y-86771428D02*
X146761142Y-86171428D01*
X146904000Y-86171428D01*
X146989714Y-86200000D01*
X147046857Y-86257142D01*
X147075428Y-86314285D01*
X147104000Y-86428571D01*
X147104000Y-86514285D01*
X147075428Y-86628571D01*
X147046857Y-86685714D01*
X146989714Y-86742857D01*
X146904000Y-86771428D01*
X146761142Y-86771428D01*
X143364000Y-86771428D02*
X143164000Y-86485714D01*
X143021142Y-86771428D02*
X143021142Y-86171428D01*
X143249714Y-86171428D01*
X143306857Y-86200000D01*
X143335428Y-86228571D01*
X143364000Y-86285714D01*
X143364000Y-86371428D01*
X143335428Y-86428571D01*
X143306857Y-86457142D01*
X143249714Y-86485714D01*
X143021142Y-86485714D01*
X143564000Y-86171428D02*
X143964000Y-86771428D01*
X143964000Y-86171428D02*
X143564000Y-86771428D01*
X144192571Y-86771428D02*
X144192571Y-86171428D01*
X144335428Y-86171428D01*
X144421142Y-86200000D01*
X144478285Y-86257142D01*
X144506857Y-86314285D01*
X144535428Y-86428571D01*
X144535428Y-86514285D01*
X144506857Y-86628571D01*
X144478285Y-86685714D01*
X144421142Y-86742857D01*
X144335428Y-86771428D01*
X144192571Y-86771428D01*
X140466857Y-86171428D02*
X140809714Y-86171428D01*
X140638285Y-86771428D02*
X140638285Y-86171428D01*
X140952571Y-86171428D02*
X141352571Y-86771428D01*
X141352571Y-86171428D02*
X140952571Y-86771428D01*
X141581142Y-86771428D02*
X141581142Y-86171428D01*
X141724000Y-86171428D01*
X141809714Y-86200000D01*
X141866857Y-86257142D01*
X141895428Y-86314285D01*
X141924000Y-86428571D01*
X141924000Y-86514285D01*
X141895428Y-86628571D01*
X141866857Y-86685714D01*
X141809714Y-86742857D01*
X141724000Y-86771428D01*
X141581142Y-86771428D01*
X135158285Y-90187428D02*
X135158285Y-89587428D01*
X135386857Y-89587428D01*
X135444000Y-89616000D01*
X135472571Y-89644571D01*
X135501142Y-89701714D01*
X135501142Y-89787428D01*
X135472571Y-89844571D01*
X135444000Y-89873142D01*
X135386857Y-89901714D01*
X135158285Y-89901714D01*
X135729714Y-90016000D02*
X136015428Y-90016000D01*
X135672571Y-90187428D02*
X135872571Y-89587428D01*
X136072571Y-90187428D01*
X136586857Y-90187428D02*
X136244000Y-90187428D01*
X136415428Y-90187428D02*
X136415428Y-89587428D01*
X136358285Y-89673142D01*
X136301142Y-89730285D01*
X136244000Y-89758857D01*
X137129714Y-89587428D02*
X136844000Y-89587428D01*
X136815428Y-89873142D01*
X136844000Y-89844571D01*
X136901142Y-89816000D01*
X137044000Y-89816000D01*
X137101142Y-89844571D01*
X137129714Y-89873142D01*
X137158285Y-89930285D01*
X137158285Y-90073142D01*
X137129714Y-90130285D01*
X137101142Y-90158857D01*
X137044000Y-90187428D01*
X136901142Y-90187428D01*
X136844000Y-90158857D01*
X136815428Y-90130285D01*
X132110285Y-90187428D02*
X132110285Y-89587428D01*
X132338857Y-89587428D01*
X132396000Y-89616000D01*
X132424571Y-89644571D01*
X132453142Y-89701714D01*
X132453142Y-89787428D01*
X132424571Y-89844571D01*
X132396000Y-89873142D01*
X132338857Y-89901714D01*
X132110285Y-89901714D01*
X132681714Y-90016000D02*
X132967428Y-90016000D01*
X132624571Y-90187428D02*
X132824571Y-89587428D01*
X133024571Y-90187428D01*
X133196000Y-89644571D02*
X133224571Y-89616000D01*
X133281714Y-89587428D01*
X133424571Y-89587428D01*
X133481714Y-89616000D01*
X133510285Y-89644571D01*
X133538857Y-89701714D01*
X133538857Y-89758857D01*
X133510285Y-89844571D01*
X133167428Y-90187428D01*
X133538857Y-90187428D01*
X134081714Y-89587428D02*
X133796000Y-89587428D01*
X133767428Y-89873142D01*
X133796000Y-89844571D01*
X133853142Y-89816000D01*
X133996000Y-89816000D01*
X134053142Y-89844571D01*
X134081714Y-89873142D01*
X134110285Y-89930285D01*
X134110285Y-90073142D01*
X134081714Y-90130285D01*
X134053142Y-90158857D01*
X133996000Y-90187428D01*
X133853142Y-90187428D01*
X133796000Y-90158857D01*
X133767428Y-90130285D01*
X129570285Y-90187428D02*
X129570285Y-89587428D01*
X129798857Y-89587428D01*
X129856000Y-89616000D01*
X129884571Y-89644571D01*
X129913142Y-89701714D01*
X129913142Y-89787428D01*
X129884571Y-89844571D01*
X129856000Y-89873142D01*
X129798857Y-89901714D01*
X129570285Y-89901714D01*
X130141714Y-90016000D02*
X130427428Y-90016000D01*
X130084571Y-90187428D02*
X130284571Y-89587428D01*
X130484571Y-90187428D01*
X130656000Y-89644571D02*
X130684571Y-89616000D01*
X130741714Y-89587428D01*
X130884571Y-89587428D01*
X130941714Y-89616000D01*
X130970285Y-89644571D01*
X130998857Y-89701714D01*
X130998857Y-89758857D01*
X130970285Y-89844571D01*
X130627428Y-90187428D01*
X130998857Y-90187428D01*
X131198857Y-89587428D02*
X131598857Y-89587428D01*
X131341714Y-90187428D01*
X127030285Y-90187428D02*
X127030285Y-89587428D01*
X127258857Y-89587428D01*
X127316000Y-89616000D01*
X127344571Y-89644571D01*
X127373142Y-89701714D01*
X127373142Y-89787428D01*
X127344571Y-89844571D01*
X127316000Y-89873142D01*
X127258857Y-89901714D01*
X127030285Y-89901714D01*
X127601714Y-90016000D02*
X127887428Y-90016000D01*
X127544571Y-90187428D02*
X127744571Y-89587428D01*
X127944571Y-90187428D01*
X128458857Y-90187428D02*
X128116000Y-90187428D01*
X128287428Y-90187428D02*
X128287428Y-89587428D01*
X128230285Y-89673142D01*
X128173142Y-89730285D01*
X128116000Y-89758857D01*
X128973142Y-89787428D02*
X128973142Y-90187428D01*
X128830285Y-89558857D02*
X128687428Y-89987428D01*
X129058857Y-89987428D01*
X124490285Y-90187428D02*
X124490285Y-89587428D01*
X124718857Y-89587428D01*
X124776000Y-89616000D01*
X124804571Y-89644571D01*
X124833142Y-89701714D01*
X124833142Y-89787428D01*
X124804571Y-89844571D01*
X124776000Y-89873142D01*
X124718857Y-89901714D01*
X124490285Y-89901714D01*
X125061714Y-90016000D02*
X125347428Y-90016000D01*
X125004571Y-90187428D02*
X125204571Y-89587428D01*
X125404571Y-90187428D01*
X125547428Y-89587428D02*
X125918857Y-89587428D01*
X125718857Y-89816000D01*
X125804571Y-89816000D01*
X125861714Y-89844571D01*
X125890285Y-89873142D01*
X125918857Y-89930285D01*
X125918857Y-90073142D01*
X125890285Y-90130285D01*
X125861714Y-90158857D01*
X125804571Y-90187428D01*
X125633142Y-90187428D01*
X125576000Y-90158857D01*
X125547428Y-90130285D01*
X126290285Y-89587428D02*
X126347428Y-89587428D01*
X126404571Y-89616000D01*
X126433142Y-89644571D01*
X126461714Y-89701714D01*
X126490285Y-89816000D01*
X126490285Y-89958857D01*
X126461714Y-90073142D01*
X126433142Y-90130285D01*
X126404571Y-90158857D01*
X126347428Y-90187428D01*
X126290285Y-90187428D01*
X126233142Y-90158857D01*
X126204571Y-90130285D01*
X126176000Y-90073142D01*
X126147428Y-89958857D01*
X126147428Y-89816000D01*
X126176000Y-89701714D01*
X126204571Y-89644571D01*
X126233142Y-89616000D01*
X126290285Y-89587428D01*
X121950285Y-90187428D02*
X121950285Y-89587428D01*
X122178857Y-89587428D01*
X122236000Y-89616000D01*
X122264571Y-89644571D01*
X122293142Y-89701714D01*
X122293142Y-89787428D01*
X122264571Y-89844571D01*
X122236000Y-89873142D01*
X122178857Y-89901714D01*
X121950285Y-89901714D01*
X122521714Y-90016000D02*
X122807428Y-90016000D01*
X122464571Y-90187428D02*
X122664571Y-89587428D01*
X122864571Y-90187428D01*
X123378857Y-90187428D02*
X123036000Y-90187428D01*
X123207428Y-90187428D02*
X123207428Y-89587428D01*
X123150285Y-89673142D01*
X123093142Y-89730285D01*
X123036000Y-89758857D01*
X123607428Y-89644571D02*
X123636000Y-89616000D01*
X123693142Y-89587428D01*
X123836000Y-89587428D01*
X123893142Y-89616000D01*
X123921714Y-89644571D01*
X123950285Y-89701714D01*
X123950285Y-89758857D01*
X123921714Y-89844571D01*
X123578857Y-90187428D01*
X123950285Y-90187428D01*
D11*
X170400000Y-113885000D02*
X170400000Y-85885000D01*
X115400000Y-113885000D02*
X170400000Y-113885000D01*
X115400000Y-85885000D02*
X115400000Y-90420000D01*
X170400000Y-85885000D02*
X115400000Y-85885000D01*
X168708000Y-102290000D02*
X162508000Y-102290000D01*
X162508000Y-105990000D02*
X168708000Y-105990000D01*
X168708000Y-105990000D02*
X168708000Y-105340000D01*
X168708000Y-102940000D02*
X168708000Y-102290000D01*
X162508000Y-102290000D02*
X162508000Y-102940000D01*
X162508000Y-105990000D02*
X162508000Y-105340000D01*
X162508000Y-91766000D02*
X168708000Y-91766000D01*
X168708000Y-88066000D02*
X162508000Y-88066000D01*
X162508000Y-88066000D02*
X162508000Y-88716000D01*
X162508000Y-91116000D02*
X162508000Y-91766000D01*
X168708000Y-91766000D02*
X168708000Y-91116000D01*
X168708000Y-88066000D02*
X168708000Y-88716000D01*
X160722000Y-93666000D02*
X162052000Y-93666000D01*
X160722000Y-94996000D02*
X160722000Y-93666000D01*
X160722000Y-96266000D02*
X163382000Y-96266000D01*
X163382000Y-96266000D02*
X163382000Y-96326000D01*
X160722000Y-96266000D02*
X160722000Y-96326000D01*
X160722000Y-96326000D02*
X163382000Y-96326000D01*
X160842000Y-109026000D02*
X159512000Y-109026000D01*
X160842000Y-107696000D02*
X160842000Y-109026000D01*
X160842000Y-106426000D02*
X158182000Y-106426000D01*
X158182000Y-106426000D02*
X158182000Y-103826000D01*
X160842000Y-106426000D02*
X160842000Y-103826000D01*
X160842000Y-103826000D02*
X158182000Y-103826000D01*
X139386000Y-93786000D02*
X139386000Y-92456000D01*
X140716000Y-93786000D02*
X139386000Y-93786000D01*
X141986000Y-93786000D02*
X141986000Y-91126000D01*
X141986000Y-91126000D02*
X147126000Y-91126000D01*
X141986000Y-93786000D02*
X147126000Y-93786000D01*
X147126000Y-93786000D02*
X147126000Y-91126000D01*
X145041252Y-104446000D02*
X144518748Y-104446000D01*
X145041252Y-105866000D02*
X144518748Y-105866000D01*
X160834000Y-98798748D02*
X160834000Y-99321252D01*
X162254000Y-98798748D02*
X162254000Y-99321252D01*
X151420000Y-113265000D02*
X145410000Y-113265000D01*
X149170000Y-106445000D02*
X145410000Y-106445000D01*
X145410000Y-113265000D02*
X145410000Y-112005000D01*
X145410000Y-106445000D02*
X145410000Y-107705000D01*
X136900000Y-91575000D02*
X137720000Y-91575000D01*
X137720000Y-91575000D02*
X137720000Y-107815000D01*
X137720000Y-107815000D02*
X136900000Y-107815000D01*
X121600000Y-108845000D02*
X122600000Y-108845000D01*
X135300000Y-107815000D02*
X134900000Y-107815000D01*
X135300000Y-91575000D02*
X134900000Y-91575000D01*
X133300000Y-107815000D02*
X132900000Y-107815000D01*
X133300000Y-91575000D02*
X132900000Y-91575000D01*
X131300000Y-107815000D02*
X130900000Y-107815000D01*
X131300000Y-91575000D02*
X130900000Y-91575000D01*
X129300000Y-107815000D02*
X128900000Y-107815000D01*
X129300000Y-91575000D02*
X128900000Y-91575000D01*
X127300000Y-107815000D02*
X126900000Y-107815000D01*
X127300000Y-91575000D02*
X126900000Y-91575000D01*
X125300000Y-107815000D02*
X124900000Y-107815000D01*
X125300000Y-91575000D02*
X124900000Y-91575000D01*
X123300000Y-107815000D02*
X122900000Y-107815000D01*
X123300000Y-91575000D02*
X122900000Y-91575000D01*
X121606000Y-89214000D02*
X121606000Y-87884000D01*
X122936000Y-89214000D02*
X121606000Y-89214000D01*
X124206000Y-89214000D02*
X124206000Y-86554000D01*
X124206000Y-86554000D02*
X136966000Y-86554000D01*
X124206000Y-89214000D02*
X136966000Y-89214000D01*
X136966000Y-89214000D02*
X136966000Y-86554000D01*
X121225000Y-112455000D02*
X121225000Y-111125000D01*
X122555000Y-112455000D02*
X121225000Y-112455000D01*
X123825000Y-112455000D02*
X123825000Y-109795000D01*
X123825000Y-109795000D02*
X126425000Y-109795000D01*
X123825000Y-112455000D02*
X126425000Y-112455000D01*
X126425000Y-112455000D02*
X126425000Y-109795000D01*
X163882000Y-98807748D02*
X163882000Y-99330252D01*
X165302000Y-98807748D02*
X165302000Y-99330252D01*
X166945000Y-95698000D02*
X168275000Y-95698000D01*
X166945000Y-97028000D02*
X166945000Y-95698000D01*
X166945000Y-98298000D02*
X169605000Y-98298000D01*
X169605000Y-98298000D02*
X169605000Y-100898000D01*
X166945000Y-98298000D02*
X166945000Y-100898000D01*
X166945000Y-100898000D02*
X169605000Y-100898000D01*
X139640000Y-89722000D02*
X139640000Y-88392000D01*
X140970000Y-89722000D02*
X139640000Y-89722000D01*
X142240000Y-89722000D02*
X142240000Y-87062000D01*
X142240000Y-87062000D02*
X147380000Y-87062000D01*
X142240000Y-89722000D02*
X147380000Y-89722000D01*
X147380000Y-89722000D02*
X147380000Y-87062000D01*
X138340000Y-109035436D02*
X138340000Y-110239564D01*
X141060000Y-109035436D02*
X141060000Y-110239564D01*
X154596000Y-109252936D02*
X154596000Y-110457064D01*
X157316000Y-109252936D02*
X157316000Y-110457064D01*
X155313748Y-91515000D02*
X155836252Y-91515000D01*
X155313748Y-90095000D02*
X155836252Y-90095000D01*
X135950000Y-109795000D02*
X135950000Y-111125000D01*
X134620000Y-109795000D02*
X135950000Y-109795000D01*
X133350000Y-109795000D02*
X133350000Y-112455000D01*
X133350000Y-112455000D02*
X128210000Y-112455000D01*
X133350000Y-109795000D02*
X128210000Y-109795000D01*
X128210000Y-109795000D02*
X128210000Y-112455000D01*
X142625000Y-94445000D02*
X139175000Y-94445000D01*
X142625000Y-94445000D02*
X144575000Y-94445000D01*
X142625000Y-103315000D02*
X140675000Y-103315000D01*
X142625000Y-103315000D02*
X144575000Y-103315000D01*
X154669748Y-102818000D02*
X155192252Y-102818000D01*
X154669748Y-101398000D02*
X155192252Y-101398000D01*
X156338748Y-99135000D02*
X156861252Y-99135000D01*
X156338748Y-97715000D02*
X156861252Y-97715000D01*
X150233748Y-104215000D02*
X150756252Y-104215000D01*
X150233748Y-102795000D02*
X150756252Y-102795000D01*
X156193748Y-95325000D02*
X156716252Y-95325000D01*
X156193748Y-93905000D02*
X156716252Y-93905000D01*
X150233748Y-99135000D02*
X150756252Y-99135000D01*
X150233748Y-97715000D02*
X150756252Y-97715000D01*
X150233748Y-94690000D02*
X150756252Y-94690000D01*
X150233748Y-93270000D02*
X150756252Y-93270000D01*
D10*
X163766666Y-102004761D02*
X163909523Y-102052380D01*
X164147619Y-102052380D01*
X164242857Y-102004761D01*
X164290476Y-101957142D01*
X164338095Y-101861904D01*
X164338095Y-101766666D01*
X164290476Y-101671428D01*
X164242857Y-101623809D01*
X164147619Y-101576190D01*
X163957142Y-101528571D01*
X163861904Y-101480952D01*
X163814285Y-101433333D01*
X163766666Y-101338095D01*
X163766666Y-101242857D01*
X163814285Y-101147619D01*
X163861904Y-101100000D01*
X163957142Y-101052380D01*
X164195238Y-101052380D01*
X164338095Y-101100000D01*
X164671428Y-101052380D02*
X164909523Y-102052380D01*
X165100000Y-101338095D01*
X165290476Y-102052380D01*
X165528571Y-101052380D01*
X166433333Y-102052380D02*
X165861904Y-102052380D01*
X166147619Y-102052380D02*
X166147619Y-101052380D01*
X166052380Y-101195238D01*
X165957142Y-101290476D01*
X165861904Y-101338095D01*
X164591333Y-106996666D02*
X164358000Y-106663333D01*
X164191333Y-106996666D02*
X164191333Y-106296666D01*
X164458000Y-106296666D01*
X164524666Y-106330000D01*
X164558000Y-106363333D01*
X164591333Y-106430000D01*
X164591333Y-106530000D01*
X164558000Y-106596666D01*
X164524666Y-106630000D01*
X164458000Y-106663333D01*
X164191333Y-106663333D01*
X164891333Y-106630000D02*
X165124666Y-106630000D01*
X165224666Y-106996666D02*
X164891333Y-106996666D01*
X164891333Y-106296666D01*
X165224666Y-106296666D01*
X165491333Y-106963333D02*
X165591333Y-106996666D01*
X165758000Y-106996666D01*
X165824666Y-106963333D01*
X165858000Y-106930000D01*
X165891333Y-106863333D01*
X165891333Y-106796666D01*
X165858000Y-106730000D01*
X165824666Y-106696666D01*
X165758000Y-106663333D01*
X165624666Y-106630000D01*
X165558000Y-106596666D01*
X165524666Y-106563333D01*
X165491333Y-106496666D01*
X165491333Y-106430000D01*
X165524666Y-106363333D01*
X165558000Y-106330000D01*
X165624666Y-106296666D01*
X165791333Y-106296666D01*
X165891333Y-106330000D01*
X166191333Y-106630000D02*
X166424666Y-106630000D01*
X166524666Y-106996666D02*
X166191333Y-106996666D01*
X166191333Y-106296666D01*
X166524666Y-106296666D01*
X166724666Y-106296666D02*
X167124666Y-106296666D01*
X166924666Y-106996666D02*
X166924666Y-106296666D01*
X164274666Y-87670761D02*
X164417523Y-87718380D01*
X164655619Y-87718380D01*
X164750857Y-87670761D01*
X164798476Y-87623142D01*
X164846095Y-87527904D01*
X164846095Y-87432666D01*
X164798476Y-87337428D01*
X164750857Y-87289809D01*
X164655619Y-87242190D01*
X164465142Y-87194571D01*
X164369904Y-87146952D01*
X164322285Y-87099333D01*
X164274666Y-87004095D01*
X164274666Y-86908857D01*
X164322285Y-86813619D01*
X164369904Y-86766000D01*
X164465142Y-86718380D01*
X164703238Y-86718380D01*
X164846095Y-86766000D01*
X165179428Y-86718380D02*
X165417523Y-87718380D01*
X165608000Y-87004095D01*
X165798476Y-87718380D01*
X166036571Y-86718380D01*
X166369904Y-86813619D02*
X166417523Y-86766000D01*
X166512761Y-86718380D01*
X166750857Y-86718380D01*
X166846095Y-86766000D01*
X166893714Y-86813619D01*
X166941333Y-86908857D01*
X166941333Y-87004095D01*
X166893714Y-87146952D01*
X166322285Y-87718380D01*
X166941333Y-87718380D01*
X163758000Y-92772666D02*
X163758000Y-92072666D01*
X163924666Y-92072666D01*
X164024666Y-92106000D01*
X164091333Y-92172666D01*
X164124666Y-92239333D01*
X164158000Y-92372666D01*
X164158000Y-92472666D01*
X164124666Y-92606000D01*
X164091333Y-92672666D01*
X164024666Y-92739333D01*
X163924666Y-92772666D01*
X163758000Y-92772666D01*
X164458000Y-92772666D02*
X164458000Y-92072666D01*
X164858000Y-92772666D01*
X164858000Y-92072666D01*
X165524666Y-92772666D02*
X165191333Y-92772666D01*
X165191333Y-92072666D01*
X165891333Y-92072666D02*
X166024666Y-92072666D01*
X166091333Y-92106000D01*
X166158000Y-92172666D01*
X166191333Y-92306000D01*
X166191333Y-92539333D01*
X166158000Y-92672666D01*
X166091333Y-92739333D01*
X166024666Y-92772666D01*
X165891333Y-92772666D01*
X165824666Y-92739333D01*
X165758000Y-92672666D01*
X165724666Y-92539333D01*
X165724666Y-92306000D01*
X165758000Y-92172666D01*
X165824666Y-92106000D01*
X165891333Y-92072666D01*
X166458000Y-92572666D02*
X166791333Y-92572666D01*
X166391333Y-92772666D02*
X166624666Y-92072666D01*
X166858000Y-92772666D01*
X167091333Y-92772666D02*
X167091333Y-92072666D01*
X167258000Y-92072666D01*
X167358000Y-92106000D01*
X167424666Y-92172666D01*
X167458000Y-92239333D01*
X167491333Y-92372666D01*
X167491333Y-92472666D01*
X167458000Y-92606000D01*
X167424666Y-92672666D01*
X167358000Y-92739333D01*
X167258000Y-92772666D01*
X167091333Y-92772666D01*
X159178666Y-94448380D02*
X159178666Y-95162666D01*
X159131047Y-95305523D01*
X159035809Y-95400761D01*
X158892952Y-95448380D01*
X158797714Y-95448380D01*
X159797714Y-94876952D02*
X159702476Y-94829333D01*
X159654857Y-94781714D01*
X159607238Y-94686476D01*
X159607238Y-94638857D01*
X159654857Y-94543619D01*
X159702476Y-94496000D01*
X159797714Y-94448380D01*
X159988190Y-94448380D01*
X160083428Y-94496000D01*
X160131047Y-94543619D01*
X160178666Y-94638857D01*
X160178666Y-94686476D01*
X160131047Y-94781714D01*
X160083428Y-94829333D01*
X159988190Y-94876952D01*
X159797714Y-94876952D01*
X159702476Y-94924571D01*
X159654857Y-94972190D01*
X159607238Y-95067428D01*
X159607238Y-95257904D01*
X159654857Y-95353142D01*
X159702476Y-95400761D01*
X159797714Y-95448380D01*
X159988190Y-95448380D01*
X160083428Y-95400761D01*
X160131047Y-95353142D01*
X160178666Y-95257904D01*
X160178666Y-95067428D01*
X160131047Y-94972190D01*
X160083428Y-94924571D01*
X159988190Y-94876952D01*
X159686666Y-109478380D02*
X159686666Y-110192666D01*
X159639047Y-110335523D01*
X159543809Y-110430761D01*
X159400952Y-110478380D01*
X159305714Y-110478380D01*
X160067619Y-109478380D02*
X160734285Y-109478380D01*
X160305714Y-110478380D01*
X148002666Y-91908380D02*
X148002666Y-92622666D01*
X147955047Y-92765523D01*
X147859809Y-92860761D01*
X147716952Y-92908380D01*
X147621714Y-92908380D01*
X148907428Y-91908380D02*
X148716952Y-91908380D01*
X148621714Y-91956000D01*
X148574095Y-92003619D01*
X148478857Y-92146476D01*
X148431238Y-92336952D01*
X148431238Y-92717904D01*
X148478857Y-92813142D01*
X148526476Y-92860761D01*
X148621714Y-92908380D01*
X148812190Y-92908380D01*
X148907428Y-92860761D01*
X148955047Y-92813142D01*
X149002666Y-92717904D01*
X149002666Y-92479809D01*
X148955047Y-92384571D01*
X148907428Y-92336952D01*
X148812190Y-92289333D01*
X148621714Y-92289333D01*
X148526476Y-92336952D01*
X148478857Y-92384571D01*
X148431238Y-92479809D01*
X147958285Y-90632000D02*
X147901142Y-90603428D01*
X147815428Y-90603428D01*
X147729714Y-90632000D01*
X147672571Y-90689142D01*
X147644000Y-90746285D01*
X147615428Y-90860571D01*
X147615428Y-90946285D01*
X147644000Y-91060571D01*
X147672571Y-91117714D01*
X147729714Y-91174857D01*
X147815428Y-91203428D01*
X147872571Y-91203428D01*
X147958285Y-91174857D01*
X147986857Y-91146285D01*
X147986857Y-90946285D01*
X147872571Y-90946285D01*
X148244000Y-91203428D02*
X148244000Y-90603428D01*
X148472571Y-90603428D01*
X148529714Y-90632000D01*
X148558285Y-90660571D01*
X148586857Y-90717714D01*
X148586857Y-90803428D01*
X148558285Y-90860571D01*
X148529714Y-90889142D01*
X148472571Y-90917714D01*
X148244000Y-90917714D01*
X148844000Y-91203428D02*
X148844000Y-90603428D01*
X149244000Y-90603428D02*
X149358285Y-90603428D01*
X149415428Y-90632000D01*
X149472571Y-90689142D01*
X149501142Y-90803428D01*
X149501142Y-91003428D01*
X149472571Y-91117714D01*
X149415428Y-91174857D01*
X149358285Y-91203428D01*
X149244000Y-91203428D01*
X149186857Y-91174857D01*
X149129714Y-91117714D01*
X149101142Y-91003428D01*
X149101142Y-90803428D01*
X149129714Y-90689142D01*
X149186857Y-90632000D01*
X149244000Y-90603428D01*
X149701142Y-90603428D02*
X150072571Y-90603428D01*
X149872571Y-90832000D01*
X149958285Y-90832000D01*
X150015428Y-90860571D01*
X150044000Y-90889142D01*
X150072571Y-90946285D01*
X150072571Y-91089142D01*
X150044000Y-91146285D01*
X150015428Y-91174857D01*
X149958285Y-91203428D01*
X149786857Y-91203428D01*
X149729714Y-91174857D01*
X149701142Y-91146285D01*
X144105333Y-107163142D02*
X144057714Y-107210761D01*
X143914857Y-107258380D01*
X143819619Y-107258380D01*
X143676761Y-107210761D01*
X143581523Y-107115523D01*
X143533904Y-107020285D01*
X143486285Y-106829809D01*
X143486285Y-106686952D01*
X143533904Y-106496476D01*
X143581523Y-106401238D01*
X143676761Y-106306000D01*
X143819619Y-106258380D01*
X143914857Y-106258380D01*
X144057714Y-106306000D01*
X144105333Y-106353619D01*
X145010095Y-106258380D02*
X144533904Y-106258380D01*
X144486285Y-106734571D01*
X144533904Y-106686952D01*
X144629142Y-106639333D01*
X144867238Y-106639333D01*
X144962476Y-106686952D01*
X145010095Y-106734571D01*
X145057714Y-106829809D01*
X145057714Y-107067904D01*
X145010095Y-107163142D01*
X144962476Y-107210761D01*
X144867238Y-107258380D01*
X144629142Y-107258380D01*
X144533904Y-107210761D01*
X144486285Y-107163142D01*
X159345333Y-99512380D02*
X159012000Y-99036190D01*
X158773904Y-99512380D02*
X158773904Y-98512380D01*
X159154857Y-98512380D01*
X159250095Y-98560000D01*
X159297714Y-98607619D01*
X159345333Y-98702857D01*
X159345333Y-98845714D01*
X159297714Y-98940952D01*
X159250095Y-98988571D01*
X159154857Y-99036190D01*
X158773904Y-99036190D01*
X160202476Y-98845714D02*
X160202476Y-99512380D01*
X159964380Y-98464761D02*
X159726285Y-99179047D01*
X160345333Y-99179047D01*
X147066095Y-104608380D02*
X147066095Y-105417904D01*
X147113714Y-105513142D01*
X147161333Y-105560761D01*
X147256571Y-105608380D01*
X147447047Y-105608380D01*
X147542285Y-105560761D01*
X147589904Y-105513142D01*
X147637523Y-105417904D01*
X147637523Y-104608380D01*
X148018476Y-104608380D02*
X148637523Y-104608380D01*
X148304190Y-104989333D01*
X148447047Y-104989333D01*
X148542285Y-105036952D01*
X148589904Y-105084571D01*
X148637523Y-105179809D01*
X148637523Y-105417904D01*
X148589904Y-105513142D01*
X148542285Y-105560761D01*
X148447047Y-105608380D01*
X148161333Y-105608380D01*
X148066095Y-105560761D01*
X148018476Y-105513142D01*
X137922095Y-90892380D02*
X137922095Y-91701904D01*
X137969714Y-91797142D01*
X138017333Y-91844761D01*
X138112571Y-91892380D01*
X138303047Y-91892380D01*
X138398285Y-91844761D01*
X138445904Y-91797142D01*
X138493523Y-91701904D01*
X138493523Y-90892380D01*
X139493523Y-91892380D02*
X138922095Y-91892380D01*
X139207809Y-91892380D02*
X139207809Y-90892380D01*
X139112571Y-91035238D01*
X139017333Y-91130476D01*
X138922095Y-91178095D01*
X119554666Y-86828380D02*
X119554666Y-87542666D01*
X119507047Y-87685523D01*
X119411809Y-87780761D01*
X119268952Y-87828380D01*
X119173714Y-87828380D01*
X120507047Y-86828380D02*
X120030857Y-86828380D01*
X119983238Y-87304571D01*
X120030857Y-87256952D01*
X120126095Y-87209333D01*
X120364190Y-87209333D01*
X120459428Y-87256952D01*
X120507047Y-87304571D01*
X120554666Y-87399809D01*
X120554666Y-87637904D01*
X120507047Y-87733142D01*
X120459428Y-87780761D01*
X120364190Y-87828380D01*
X120126095Y-87828380D01*
X120030857Y-87780761D01*
X119983238Y-87733142D01*
X117395809Y-88400000D02*
X117300571Y-88352380D01*
X117157714Y-88352380D01*
X117014857Y-88400000D01*
X116919619Y-88495238D01*
X116872000Y-88590476D01*
X116824380Y-88780952D01*
X116824380Y-88923809D01*
X116872000Y-89114285D01*
X116919619Y-89209523D01*
X117014857Y-89304761D01*
X117157714Y-89352380D01*
X117252952Y-89352380D01*
X117395809Y-89304761D01*
X117443428Y-89257142D01*
X117443428Y-88923809D01*
X117252952Y-88923809D01*
X117872000Y-89352380D02*
X117872000Y-88352380D01*
X118252952Y-88352380D01*
X118348190Y-88400000D01*
X118395809Y-88447619D01*
X118443428Y-88542857D01*
X118443428Y-88685714D01*
X118395809Y-88780952D01*
X118348190Y-88828571D01*
X118252952Y-88876190D01*
X117872000Y-88876190D01*
X118872000Y-89352380D02*
X118872000Y-88352380D01*
X119538666Y-88352380D02*
X119729142Y-88352380D01*
X119824380Y-88400000D01*
X119919619Y-88495238D01*
X119967238Y-88685714D01*
X119967238Y-89019047D01*
X119919619Y-89209523D01*
X119824380Y-89304761D01*
X119729142Y-89352380D01*
X119538666Y-89352380D01*
X119443428Y-89304761D01*
X119348190Y-89209523D01*
X119300571Y-89019047D01*
X119300571Y-88685714D01*
X119348190Y-88495238D01*
X119443428Y-88400000D01*
X119538666Y-88352380D01*
X120919619Y-89352380D02*
X120348190Y-89352380D01*
X120633904Y-89352380D02*
X120633904Y-88352380D01*
X120538666Y-88495238D01*
X120443428Y-88590476D01*
X120348190Y-88638095D01*
X119677380Y-111458333D02*
X120391666Y-111458333D01*
X120534523Y-111505952D01*
X120629761Y-111601190D01*
X120677380Y-111744047D01*
X120677380Y-111839285D01*
X120010714Y-110553571D02*
X120677380Y-110553571D01*
X119629761Y-110791666D02*
X120344047Y-111029761D01*
X120344047Y-110410714D01*
X122410666Y-108870000D02*
X122344000Y-108836666D01*
X122244000Y-108836666D01*
X122144000Y-108870000D01*
X122077333Y-108936666D01*
X122044000Y-109003333D01*
X122010666Y-109136666D01*
X122010666Y-109236666D01*
X122044000Y-109370000D01*
X122077333Y-109436666D01*
X122144000Y-109503333D01*
X122244000Y-109536666D01*
X122310666Y-109536666D01*
X122410666Y-109503333D01*
X122444000Y-109470000D01*
X122444000Y-109236666D01*
X122310666Y-109236666D01*
X122744000Y-109536666D02*
X122744000Y-108836666D01*
X123010666Y-108836666D01*
X123077333Y-108870000D01*
X123110666Y-108903333D01*
X123144000Y-108970000D01*
X123144000Y-109070000D01*
X123110666Y-109136666D01*
X123077333Y-109170000D01*
X123010666Y-109203333D01*
X122744000Y-109203333D01*
X123444000Y-109536666D02*
X123444000Y-108836666D01*
X123910666Y-108836666D02*
X124044000Y-108836666D01*
X124110666Y-108870000D01*
X124177333Y-108936666D01*
X124210666Y-109070000D01*
X124210666Y-109303333D01*
X124177333Y-109436666D01*
X124110666Y-109503333D01*
X124044000Y-109536666D01*
X123910666Y-109536666D01*
X123844000Y-109503333D01*
X123777333Y-109436666D01*
X123744000Y-109303333D01*
X123744000Y-109070000D01*
X123777333Y-108936666D01*
X123844000Y-108870000D01*
X123910666Y-108836666D01*
X124477333Y-108903333D02*
X124510666Y-108870000D01*
X124577333Y-108836666D01*
X124744000Y-108836666D01*
X124810666Y-108870000D01*
X124844000Y-108903333D01*
X124877333Y-108970000D01*
X124877333Y-109036666D01*
X124844000Y-109136666D01*
X124444000Y-109536666D01*
X124877333Y-109536666D01*
X164425333Y-96972380D02*
X164092000Y-96496190D01*
X163853904Y-96972380D02*
X163853904Y-95972380D01*
X164234857Y-95972380D01*
X164330095Y-96020000D01*
X164377714Y-96067619D01*
X164425333Y-96162857D01*
X164425333Y-96305714D01*
X164377714Y-96400952D01*
X164330095Y-96448571D01*
X164234857Y-96496190D01*
X163853904Y-96496190D01*
X164758666Y-95972380D02*
X165425333Y-95972380D01*
X164996761Y-96972380D01*
X165274666Y-94448380D02*
X165274666Y-95162666D01*
X165227047Y-95305523D01*
X165131809Y-95400761D01*
X164988952Y-95448380D01*
X164893714Y-95448380D01*
X165655619Y-94448380D02*
X166274666Y-94448380D01*
X165941333Y-94829333D01*
X166084190Y-94829333D01*
X166179428Y-94876952D01*
X166227047Y-94924571D01*
X166274666Y-95019809D01*
X166274666Y-95257904D01*
X166227047Y-95353142D01*
X166179428Y-95400761D01*
X166084190Y-95448380D01*
X165798476Y-95448380D01*
X165703238Y-95400761D01*
X165655619Y-95353142D01*
X138092380Y-88725333D02*
X138806666Y-88725333D01*
X138949523Y-88772952D01*
X139044761Y-88868190D01*
X139092380Y-89011047D01*
X139092380Y-89106285D01*
X138187619Y-88296761D02*
X138140000Y-88249142D01*
X138092380Y-88153904D01*
X138092380Y-87915809D01*
X138140000Y-87820571D01*
X138187619Y-87772952D01*
X138282857Y-87725333D01*
X138378095Y-87725333D01*
X138520952Y-87772952D01*
X139092380Y-88344380D01*
X139092380Y-87725333D01*
X148264761Y-87336380D02*
X148264761Y-88145904D01*
X148312380Y-88241142D01*
X148360000Y-88288761D01*
X148455238Y-88336380D01*
X148645714Y-88336380D01*
X148740952Y-88288761D01*
X148788571Y-88241142D01*
X148836190Y-88145904D01*
X148836190Y-87336380D01*
X149264761Y-88050666D02*
X149740952Y-88050666D01*
X149169523Y-88336380D02*
X149502857Y-87336380D01*
X149836190Y-88336380D01*
X150740952Y-88336380D02*
X150407619Y-87860190D01*
X150169523Y-88336380D02*
X150169523Y-87336380D01*
X150550476Y-87336380D01*
X150645714Y-87384000D01*
X150693333Y-87431619D01*
X150740952Y-87526857D01*
X150740952Y-87669714D01*
X150693333Y-87764952D01*
X150645714Y-87812571D01*
X150550476Y-87860190D01*
X150169523Y-87860190D01*
X151026666Y-87336380D02*
X151598095Y-87336380D01*
X151312380Y-88336380D02*
X151312380Y-87336380D01*
X139533333Y-106529142D02*
X139485714Y-106576761D01*
X139342857Y-106624380D01*
X139247619Y-106624380D01*
X139104761Y-106576761D01*
X139009523Y-106481523D01*
X138961904Y-106386285D01*
X138914285Y-106195809D01*
X138914285Y-106052952D01*
X138961904Y-105862476D01*
X139009523Y-105767238D01*
X139104761Y-105672000D01*
X139247619Y-105624380D01*
X139342857Y-105624380D01*
X139485714Y-105672000D01*
X139533333Y-105719619D01*
X140390476Y-105957714D02*
X140390476Y-106624380D01*
X140152380Y-105576761D02*
X139914285Y-106291047D01*
X140533333Y-106291047D01*
X155789333Y-107037142D02*
X155741714Y-107084761D01*
X155598857Y-107132380D01*
X155503619Y-107132380D01*
X155360761Y-107084761D01*
X155265523Y-106989523D01*
X155217904Y-106894285D01*
X155170285Y-106703809D01*
X155170285Y-106560952D01*
X155217904Y-106370476D01*
X155265523Y-106275238D01*
X155360761Y-106180000D01*
X155503619Y-106132380D01*
X155598857Y-106132380D01*
X155741714Y-106180000D01*
X155789333Y-106227619D01*
X156122666Y-106132380D02*
X156741714Y-106132380D01*
X156408380Y-106513333D01*
X156551238Y-106513333D01*
X156646476Y-106560952D01*
X156694095Y-106608571D01*
X156741714Y-106703809D01*
X156741714Y-106941904D01*
X156694095Y-107037142D01*
X156646476Y-107084761D01*
X156551238Y-107132380D01*
X156265523Y-107132380D01*
X156170285Y-107084761D01*
X156122666Y-107037142D01*
X155408333Y-89607380D02*
X155075000Y-89131190D01*
X154836904Y-89607380D02*
X154836904Y-88607380D01*
X155217857Y-88607380D01*
X155313095Y-88655000D01*
X155360714Y-88702619D01*
X155408333Y-88797857D01*
X155408333Y-88940714D01*
X155360714Y-89035952D01*
X155313095Y-89083571D01*
X155217857Y-89131190D01*
X154836904Y-89131190D01*
X156360714Y-89607380D02*
X155789285Y-89607380D01*
X156075000Y-89607380D02*
X156075000Y-88607380D01*
X155979761Y-88750238D01*
X155884523Y-88845476D01*
X155789285Y-88893095D01*
X136612380Y-111585333D02*
X137326666Y-111585333D01*
X137469523Y-111632952D01*
X137564761Y-111728190D01*
X137612380Y-111871047D01*
X137612380Y-111966285D01*
X137612380Y-110585333D02*
X137612380Y-111156761D01*
X137612380Y-110871047D02*
X136612380Y-110871047D01*
X136755238Y-110966285D01*
X136850476Y-111061523D01*
X136898095Y-111156761D01*
X127739333Y-113092666D02*
X127739333Y-112392666D01*
X127972666Y-112892666D01*
X128206000Y-112392666D01*
X128206000Y-113092666D01*
X128839333Y-113092666D02*
X128839333Y-112726000D01*
X128806000Y-112659333D01*
X128739333Y-112626000D01*
X128606000Y-112626000D01*
X128539333Y-112659333D01*
X128839333Y-113059333D02*
X128772666Y-113092666D01*
X128606000Y-113092666D01*
X128539333Y-113059333D01*
X128506000Y-112992666D01*
X128506000Y-112926000D01*
X128539333Y-112859333D01*
X128606000Y-112826000D01*
X128772666Y-112826000D01*
X128839333Y-112792666D01*
X129472666Y-112626000D02*
X129472666Y-113192666D01*
X129439333Y-113259333D01*
X129406000Y-113292666D01*
X129339333Y-113326000D01*
X129239333Y-113326000D01*
X129172666Y-113292666D01*
X129472666Y-113059333D02*
X129406000Y-113092666D01*
X129272666Y-113092666D01*
X129206000Y-113059333D01*
X129172666Y-113026000D01*
X129139333Y-112959333D01*
X129139333Y-112759333D01*
X129172666Y-112692666D01*
X129206000Y-112659333D01*
X129272666Y-112626000D01*
X129406000Y-112626000D01*
X129472666Y-112659333D01*
X130306000Y-113059333D02*
X130406000Y-113092666D01*
X130572666Y-113092666D01*
X130639333Y-113059333D01*
X130672666Y-113026000D01*
X130706000Y-112959333D01*
X130706000Y-112892666D01*
X130672666Y-112826000D01*
X130639333Y-112792666D01*
X130572666Y-112759333D01*
X130439333Y-112726000D01*
X130372666Y-112692666D01*
X130339333Y-112659333D01*
X130306000Y-112592666D01*
X130306000Y-112526000D01*
X130339333Y-112459333D01*
X130372666Y-112426000D01*
X130439333Y-112392666D01*
X130606000Y-112392666D01*
X130706000Y-112426000D01*
X130939333Y-112626000D02*
X131072666Y-113092666D01*
X131206000Y-112759333D01*
X131339333Y-113092666D01*
X131472666Y-112626000D01*
X131739333Y-113092666D02*
X131739333Y-112626000D01*
X131739333Y-112392666D02*
X131706000Y-112426000D01*
X131739333Y-112459333D01*
X131772666Y-112426000D01*
X131739333Y-112392666D01*
X131739333Y-112459333D01*
X131972666Y-112626000D02*
X132239333Y-112626000D01*
X132072666Y-112392666D02*
X132072666Y-112992666D01*
X132106000Y-113059333D01*
X132172666Y-113092666D01*
X132239333Y-113092666D01*
X132772666Y-113059333D02*
X132706000Y-113092666D01*
X132572666Y-113092666D01*
X132506000Y-113059333D01*
X132472666Y-113026000D01*
X132439333Y-112959333D01*
X132439333Y-112759333D01*
X132472666Y-112692666D01*
X132506000Y-112659333D01*
X132572666Y-112626000D01*
X132706000Y-112626000D01*
X132772666Y-112659333D01*
X133072666Y-113092666D02*
X133072666Y-112392666D01*
X133372666Y-113092666D02*
X133372666Y-112726000D01*
X133339333Y-112659333D01*
X133272666Y-112626000D01*
X133172666Y-112626000D01*
X133106000Y-112659333D01*
X133072666Y-112692666D01*
X146558095Y-94956380D02*
X146558095Y-95765904D01*
X146605714Y-95861142D01*
X146653333Y-95908761D01*
X146748571Y-95956380D01*
X146939047Y-95956380D01*
X147034285Y-95908761D01*
X147081904Y-95861142D01*
X147129523Y-95765904D01*
X147129523Y-94956380D01*
X147558095Y-95051619D02*
X147605714Y-95004000D01*
X147700952Y-94956380D01*
X147939047Y-94956380D01*
X148034285Y-95004000D01*
X148081904Y-95051619D01*
X148129523Y-95146857D01*
X148129523Y-95242095D01*
X148081904Y-95384952D01*
X147510476Y-95956380D01*
X148129523Y-95956380D01*
X154764333Y-100910380D02*
X154431000Y-100434190D01*
X154192904Y-100910380D02*
X154192904Y-99910380D01*
X154573857Y-99910380D01*
X154669095Y-99958000D01*
X154716714Y-100005619D01*
X154764333Y-100100857D01*
X154764333Y-100243714D01*
X154716714Y-100338952D01*
X154669095Y-100386571D01*
X154573857Y-100434190D01*
X154192904Y-100434190D01*
X155621476Y-99910380D02*
X155431000Y-99910380D01*
X155335761Y-99958000D01*
X155288142Y-100005619D01*
X155192904Y-100148476D01*
X155145285Y-100338952D01*
X155145285Y-100719904D01*
X155192904Y-100815142D01*
X155240523Y-100862761D01*
X155335761Y-100910380D01*
X155526238Y-100910380D01*
X155621476Y-100862761D01*
X155669095Y-100815142D01*
X155716714Y-100719904D01*
X155716714Y-100481809D01*
X155669095Y-100386571D01*
X155621476Y-100338952D01*
X155526238Y-100291333D01*
X155335761Y-100291333D01*
X155240523Y-100338952D01*
X155192904Y-100386571D01*
X155145285Y-100481809D01*
X156433333Y-97227380D02*
X156100000Y-96751190D01*
X155861904Y-97227380D02*
X155861904Y-96227380D01*
X156242857Y-96227380D01*
X156338095Y-96275000D01*
X156385714Y-96322619D01*
X156433333Y-96417857D01*
X156433333Y-96560714D01*
X156385714Y-96655952D01*
X156338095Y-96703571D01*
X156242857Y-96751190D01*
X155861904Y-96751190D01*
X157338095Y-96227380D02*
X156861904Y-96227380D01*
X156814285Y-96703571D01*
X156861904Y-96655952D01*
X156957142Y-96608333D01*
X157195238Y-96608333D01*
X157290476Y-96655952D01*
X157338095Y-96703571D01*
X157385714Y-96798809D01*
X157385714Y-97036904D01*
X157338095Y-97132142D01*
X157290476Y-97179761D01*
X157195238Y-97227380D01*
X156957142Y-97227380D01*
X156861904Y-97179761D01*
X156814285Y-97132142D01*
X150328333Y-102307380D02*
X149995000Y-101831190D01*
X149756904Y-102307380D02*
X149756904Y-101307380D01*
X150137857Y-101307380D01*
X150233095Y-101355000D01*
X150280714Y-101402619D01*
X150328333Y-101497857D01*
X150328333Y-101640714D01*
X150280714Y-101735952D01*
X150233095Y-101783571D01*
X150137857Y-101831190D01*
X149756904Y-101831190D01*
X150709285Y-101402619D02*
X150756904Y-101355000D01*
X150852142Y-101307380D01*
X151090238Y-101307380D01*
X151185476Y-101355000D01*
X151233095Y-101402619D01*
X151280714Y-101497857D01*
X151280714Y-101593095D01*
X151233095Y-101735952D01*
X150661666Y-102307380D01*
X151280714Y-102307380D01*
X156288333Y-93417380D02*
X155955000Y-92941190D01*
X155716904Y-93417380D02*
X155716904Y-92417380D01*
X156097857Y-92417380D01*
X156193095Y-92465000D01*
X156240714Y-92512619D01*
X156288333Y-92607857D01*
X156288333Y-92750714D01*
X156240714Y-92845952D01*
X156193095Y-92893571D01*
X156097857Y-92941190D01*
X155716904Y-92941190D01*
X156621666Y-92417380D02*
X157240714Y-92417380D01*
X156907380Y-92798333D01*
X157050238Y-92798333D01*
X157145476Y-92845952D01*
X157193095Y-92893571D01*
X157240714Y-92988809D01*
X157240714Y-93226904D01*
X157193095Y-93322142D01*
X157145476Y-93369761D01*
X157050238Y-93417380D01*
X156764523Y-93417380D01*
X156669285Y-93369761D01*
X156621666Y-93322142D01*
X150328333Y-97132142D02*
X150280714Y-97179761D01*
X150137857Y-97227380D01*
X150042619Y-97227380D01*
X149899761Y-97179761D01*
X149804523Y-97084523D01*
X149756904Y-96989285D01*
X149709285Y-96798809D01*
X149709285Y-96655952D01*
X149756904Y-96465476D01*
X149804523Y-96370238D01*
X149899761Y-96275000D01*
X150042619Y-96227380D01*
X150137857Y-96227380D01*
X150280714Y-96275000D01*
X150328333Y-96322619D01*
X150709285Y-96322619D02*
X150756904Y-96275000D01*
X150852142Y-96227380D01*
X151090238Y-96227380D01*
X151185476Y-96275000D01*
X151233095Y-96322619D01*
X151280714Y-96417857D01*
X151280714Y-96513095D01*
X151233095Y-96655952D01*
X150661666Y-97227380D01*
X151280714Y-97227380D01*
X150328333Y-92687142D02*
X150280714Y-92734761D01*
X150137857Y-92782380D01*
X150042619Y-92782380D01*
X149899761Y-92734761D01*
X149804523Y-92639523D01*
X149756904Y-92544285D01*
X149709285Y-92353809D01*
X149709285Y-92210952D01*
X149756904Y-92020476D01*
X149804523Y-91925238D01*
X149899761Y-91830000D01*
X150042619Y-91782380D01*
X150137857Y-91782380D01*
X150280714Y-91830000D01*
X150328333Y-91877619D01*
X151280714Y-92782380D02*
X150709285Y-92782380D01*
X150995000Y-92782380D02*
X150995000Y-91782380D01*
X150899761Y-91925238D01*
X150804523Y-92020476D01*
X150709285Y-92068095D01*
M02*
