%TF.GenerationSoftware,KiCad,Pcbnew,(5.1.5)-3*%
%TF.CreationDate,2021-03-22T20:11:52-05:00*%
%TF.ProjectId,RTL8720DN multi function board,52544c38-3732-4304-944e-206d756c7469,rev?*%
%TF.SameCoordinates,Original*%
%TF.FileFunction,Soldermask,Top*%
%TF.FilePolarity,Negative*%
%FSLAX46Y46*%
G04 Gerber Fmt 4.6, Leading zero omitted, Abs format (unit mm)*
G04 Created by KiCad (PCBNEW (5.1.5)-3) date 2021-03-22 20:11:52*
%MOMM*%
%LPD*%
G04 APERTURE LIST*
%ADD10C,0.120000*%
%ADD11C,0.100000*%
G04 APERTURE END LIST*
D10*
X120550000Y-90420000D02*
X120550000Y-108712000D01*
X120550000Y-108712000D02*
X115400000Y-108712000D01*
X115400000Y-90420000D02*
X120550000Y-90420000D01*
X115400000Y-108712000D02*
X115400000Y-113885000D01*
X170400000Y-113885000D02*
X170400000Y-85885000D01*
X115400000Y-113885000D02*
X170400000Y-113885000D01*
X115400000Y-85885000D02*
X115400000Y-90420000D01*
X170400000Y-85885000D02*
X115400000Y-85885000D01*
D11*
G36*
X151521000Y-112956000D02*
G01*
X149419000Y-112956000D01*
X149419000Y-111354000D01*
X151521000Y-111354000D01*
X151521000Y-112956000D01*
G37*
G36*
X167854794Y-110172155D02*
G01*
X167961150Y-110193311D01*
X168035239Y-110224000D01*
X168161520Y-110276307D01*
X168341844Y-110396795D01*
X168495205Y-110550156D01*
X168615693Y-110730480D01*
X168642265Y-110794631D01*
X168670249Y-110862189D01*
X168698689Y-110930851D01*
X168741000Y-111143560D01*
X168741000Y-111360440D01*
X168698689Y-111573149D01*
X168615693Y-111773520D01*
X168495205Y-111953844D01*
X168341844Y-112107205D01*
X168161520Y-112227693D01*
X167961150Y-112310689D01*
X167854794Y-112331845D01*
X167748440Y-112353000D01*
X167531560Y-112353000D01*
X167425206Y-112331845D01*
X167318850Y-112310689D01*
X167118480Y-112227693D01*
X166938156Y-112107205D01*
X166784795Y-111953844D01*
X166664307Y-111773520D01*
X166581311Y-111573149D01*
X166539000Y-111360440D01*
X166539000Y-111143560D01*
X166581311Y-110930851D01*
X166609752Y-110862189D01*
X166637735Y-110794631D01*
X166664307Y-110730480D01*
X166784795Y-110550156D01*
X166938156Y-110396795D01*
X167118480Y-110276307D01*
X167244761Y-110224000D01*
X167318850Y-110193311D01*
X167425206Y-110172155D01*
X167531560Y-110151000D01*
X167748440Y-110151000D01*
X167854794Y-110172155D01*
G37*
G36*
X118324794Y-110172155D02*
G01*
X118431150Y-110193311D01*
X118505239Y-110224000D01*
X118631520Y-110276307D01*
X118811844Y-110396795D01*
X118965205Y-110550156D01*
X119085693Y-110730480D01*
X119112265Y-110794631D01*
X119140249Y-110862189D01*
X119168689Y-110930851D01*
X119211000Y-111143560D01*
X119211000Y-111360440D01*
X119168689Y-111573149D01*
X119085693Y-111773520D01*
X118965205Y-111953844D01*
X118811844Y-112107205D01*
X118631520Y-112227693D01*
X118431150Y-112310689D01*
X118324794Y-112331845D01*
X118218440Y-112353000D01*
X118001560Y-112353000D01*
X117895206Y-112331845D01*
X117788850Y-112310689D01*
X117588480Y-112227693D01*
X117408156Y-112107205D01*
X117254795Y-111953844D01*
X117134307Y-111773520D01*
X117051311Y-111573149D01*
X117009000Y-111360440D01*
X117009000Y-111143560D01*
X117051311Y-110930851D01*
X117079752Y-110862189D01*
X117107735Y-110794631D01*
X117134307Y-110730480D01*
X117254795Y-110550156D01*
X117408156Y-110396795D01*
X117588480Y-110276307D01*
X117714761Y-110224000D01*
X117788850Y-110193311D01*
X117895206Y-110172155D01*
X118001560Y-110151000D01*
X118218440Y-110151000D01*
X118324794Y-110172155D01*
G37*
G36*
X157181562Y-110583181D02*
G01*
X157216481Y-110593774D01*
X157248663Y-110610976D01*
X157276873Y-110634127D01*
X157300024Y-110662337D01*
X157317226Y-110694519D01*
X157327819Y-110729438D01*
X157332000Y-110771895D01*
X157332000Y-111913105D01*
X157327819Y-111955562D01*
X157317226Y-111990481D01*
X157300024Y-112022663D01*
X157276873Y-112050873D01*
X157248663Y-112074024D01*
X157216481Y-112091226D01*
X157181562Y-112101819D01*
X157139105Y-112106000D01*
X154772895Y-112106000D01*
X154730438Y-112101819D01*
X154695519Y-112091226D01*
X154663337Y-112074024D01*
X154635127Y-112050873D01*
X154611976Y-112022663D01*
X154594774Y-111990481D01*
X154584181Y-111955562D01*
X154580000Y-111913105D01*
X154580000Y-110771895D01*
X154584181Y-110729438D01*
X154594774Y-110694519D01*
X154611976Y-110662337D01*
X154635127Y-110634127D01*
X154663337Y-110610976D01*
X154695519Y-110593774D01*
X154730438Y-110583181D01*
X154772895Y-110579000D01*
X157139105Y-110579000D01*
X157181562Y-110583181D01*
G37*
G36*
X132193512Y-110228927D02*
G01*
X132342812Y-110258624D01*
X132506784Y-110326544D01*
X132654354Y-110425147D01*
X132779853Y-110550646D01*
X132878456Y-110698216D01*
X132946376Y-110862188D01*
X132981000Y-111036259D01*
X132981000Y-111213741D01*
X132946376Y-111387812D01*
X132878456Y-111551784D01*
X132779853Y-111699354D01*
X132654354Y-111824853D01*
X132506784Y-111923456D01*
X132342812Y-111991376D01*
X132193512Y-112021073D01*
X132168742Y-112026000D01*
X131991258Y-112026000D01*
X131966488Y-112021073D01*
X131817188Y-111991376D01*
X131653216Y-111923456D01*
X131505646Y-111824853D01*
X131380147Y-111699354D01*
X131281544Y-111551784D01*
X131213624Y-111387812D01*
X131179000Y-111213741D01*
X131179000Y-111036259D01*
X131213624Y-110862188D01*
X131281544Y-110698216D01*
X131380147Y-110550646D01*
X131505646Y-110425147D01*
X131653216Y-110326544D01*
X131817188Y-110258624D01*
X131966488Y-110228927D01*
X131991258Y-110224000D01*
X132168742Y-110224000D01*
X132193512Y-110228927D01*
G37*
G36*
X129653512Y-110228927D02*
G01*
X129802812Y-110258624D01*
X129966784Y-110326544D01*
X130114354Y-110425147D01*
X130239853Y-110550646D01*
X130338456Y-110698216D01*
X130406376Y-110862188D01*
X130441000Y-111036259D01*
X130441000Y-111213741D01*
X130406376Y-111387812D01*
X130338456Y-111551784D01*
X130239853Y-111699354D01*
X130114354Y-111824853D01*
X129966784Y-111923456D01*
X129802812Y-111991376D01*
X129653512Y-112021073D01*
X129628742Y-112026000D01*
X129451258Y-112026000D01*
X129426488Y-112021073D01*
X129277188Y-111991376D01*
X129113216Y-111923456D01*
X128965646Y-111824853D01*
X128840147Y-111699354D01*
X128741544Y-111551784D01*
X128673624Y-111387812D01*
X128639000Y-111213741D01*
X128639000Y-111036259D01*
X128673624Y-110862188D01*
X128741544Y-110698216D01*
X128840147Y-110550646D01*
X128965646Y-110425147D01*
X129113216Y-110326544D01*
X129277188Y-110258624D01*
X129426488Y-110228927D01*
X129451258Y-110224000D01*
X129628742Y-110224000D01*
X129653512Y-110228927D01*
G37*
G36*
X123456000Y-112026000D02*
G01*
X121654000Y-112026000D01*
X121654000Y-110224000D01*
X123456000Y-110224000D01*
X123456000Y-112026000D01*
G37*
G36*
X125208512Y-110228927D02*
G01*
X125357812Y-110258624D01*
X125521784Y-110326544D01*
X125669354Y-110425147D01*
X125794853Y-110550646D01*
X125893456Y-110698216D01*
X125961376Y-110862188D01*
X125996000Y-111036259D01*
X125996000Y-111213741D01*
X125961376Y-111387812D01*
X125893456Y-111551784D01*
X125794853Y-111699354D01*
X125669354Y-111824853D01*
X125521784Y-111923456D01*
X125357812Y-111991376D01*
X125208512Y-112021073D01*
X125183742Y-112026000D01*
X125006258Y-112026000D01*
X124981488Y-112021073D01*
X124832188Y-111991376D01*
X124668216Y-111923456D01*
X124520646Y-111824853D01*
X124395147Y-111699354D01*
X124296544Y-111551784D01*
X124228624Y-111387812D01*
X124194000Y-111213741D01*
X124194000Y-111036259D01*
X124228624Y-110862188D01*
X124296544Y-110698216D01*
X124395147Y-110550646D01*
X124520646Y-110425147D01*
X124668216Y-110326544D01*
X124832188Y-110258624D01*
X124981488Y-110228927D01*
X125006258Y-110224000D01*
X125183742Y-110224000D01*
X125208512Y-110228927D01*
G37*
G36*
X135521000Y-112026000D02*
G01*
X133719000Y-112026000D01*
X133719000Y-110224000D01*
X135521000Y-110224000D01*
X135521000Y-112026000D01*
G37*
G36*
X140925562Y-110365681D02*
G01*
X140960481Y-110376274D01*
X140992663Y-110393476D01*
X141020873Y-110416627D01*
X141044024Y-110444837D01*
X141061226Y-110477019D01*
X141071819Y-110511938D01*
X141076000Y-110554395D01*
X141076000Y-111695605D01*
X141071819Y-111738062D01*
X141061226Y-111772981D01*
X141044024Y-111805163D01*
X141020873Y-111833373D01*
X140992663Y-111856524D01*
X140960481Y-111873726D01*
X140925562Y-111884319D01*
X140883105Y-111888500D01*
X138516895Y-111888500D01*
X138474438Y-111884319D01*
X138439519Y-111873726D01*
X138407337Y-111856524D01*
X138379127Y-111833373D01*
X138355976Y-111805163D01*
X138338774Y-111772981D01*
X138328181Y-111738062D01*
X138324000Y-111695605D01*
X138324000Y-110554395D01*
X138328181Y-110511938D01*
X138338774Y-110477019D01*
X138355976Y-110444837D01*
X138379127Y-110416627D01*
X138407337Y-110393476D01*
X138439519Y-110376274D01*
X138474438Y-110365681D01*
X138516895Y-110361500D01*
X140883105Y-110361500D01*
X140925562Y-110365681D01*
G37*
G36*
X145221000Y-111806000D02*
G01*
X143119000Y-111806000D01*
X143119000Y-107904000D01*
X145221000Y-107904000D01*
X145221000Y-111806000D01*
G37*
G36*
X151521000Y-110656000D02*
G01*
X149419000Y-110656000D01*
X149419000Y-109054000D01*
X151521000Y-109054000D01*
X151521000Y-110656000D01*
G37*
G36*
X157181562Y-107608181D02*
G01*
X157216481Y-107618774D01*
X157248663Y-107635976D01*
X157276873Y-107659127D01*
X157300024Y-107687337D01*
X157317226Y-107719519D01*
X157327819Y-107754438D01*
X157332000Y-107796895D01*
X157332000Y-108938105D01*
X157327819Y-108980562D01*
X157317226Y-109015481D01*
X157300024Y-109047663D01*
X157276873Y-109075873D01*
X157248663Y-109099024D01*
X157216481Y-109116226D01*
X157181562Y-109126819D01*
X157139105Y-109131000D01*
X154772895Y-109131000D01*
X154730438Y-109126819D01*
X154695519Y-109116226D01*
X154663337Y-109099024D01*
X154635127Y-109075873D01*
X154611976Y-109047663D01*
X154594774Y-109015481D01*
X154584181Y-108980562D01*
X154580000Y-108938105D01*
X154580000Y-107796895D01*
X154584181Y-107754438D01*
X154594774Y-107719519D01*
X154611976Y-107687337D01*
X154635127Y-107659127D01*
X154663337Y-107635976D01*
X154695519Y-107618774D01*
X154730438Y-107608181D01*
X154772895Y-107604000D01*
X157139105Y-107604000D01*
X157181562Y-107608181D01*
G37*
G36*
X140925562Y-107390681D02*
G01*
X140960481Y-107401274D01*
X140992663Y-107418476D01*
X141020873Y-107441627D01*
X141044024Y-107469837D01*
X141061226Y-107502019D01*
X141071819Y-107536938D01*
X141076000Y-107579395D01*
X141076000Y-108720605D01*
X141071819Y-108763062D01*
X141061226Y-108797981D01*
X141044024Y-108830163D01*
X141020873Y-108858373D01*
X140992663Y-108881524D01*
X140960481Y-108898726D01*
X140925562Y-108909319D01*
X140883105Y-108913500D01*
X138516895Y-108913500D01*
X138474438Y-108909319D01*
X138439519Y-108898726D01*
X138407337Y-108881524D01*
X138379127Y-108858373D01*
X138355976Y-108830163D01*
X138338774Y-108797981D01*
X138328181Y-108763062D01*
X138324000Y-108720605D01*
X138324000Y-107579395D01*
X138328181Y-107536938D01*
X138338774Y-107502019D01*
X138355976Y-107469837D01*
X138379127Y-107441627D01*
X138407337Y-107418476D01*
X138439519Y-107401274D01*
X138474438Y-107390681D01*
X138516895Y-107386500D01*
X140883105Y-107386500D01*
X140925562Y-107390681D01*
G37*
G36*
X160413000Y-108597000D02*
G01*
X158611000Y-108597000D01*
X158611000Y-106795000D01*
X160413000Y-106795000D01*
X160413000Y-108597000D01*
G37*
G36*
X136651000Y-108596000D02*
G01*
X135549000Y-108596000D01*
X135549000Y-105994000D01*
X136651000Y-105994000D01*
X136651000Y-108596000D01*
G37*
G36*
X122651000Y-108596000D02*
G01*
X121549000Y-108596000D01*
X121549000Y-105994000D01*
X122651000Y-105994000D01*
X122651000Y-108596000D01*
G37*
G36*
X124651000Y-108596000D02*
G01*
X123549000Y-108596000D01*
X123549000Y-105994000D01*
X124651000Y-105994000D01*
X124651000Y-108596000D01*
G37*
G36*
X126651000Y-108596000D02*
G01*
X125549000Y-108596000D01*
X125549000Y-105994000D01*
X126651000Y-105994000D01*
X126651000Y-108596000D01*
G37*
G36*
X128651000Y-108596000D02*
G01*
X127549000Y-108596000D01*
X127549000Y-105994000D01*
X128651000Y-105994000D01*
X128651000Y-108596000D01*
G37*
G36*
X130651000Y-108596000D02*
G01*
X129549000Y-108596000D01*
X129549000Y-105994000D01*
X130651000Y-105994000D01*
X130651000Y-108596000D01*
G37*
G36*
X132651000Y-108596000D02*
G01*
X131549000Y-108596000D01*
X131549000Y-105994000D01*
X132651000Y-105994000D01*
X132651000Y-108596000D01*
G37*
G36*
X134651000Y-108596000D02*
G01*
X133549000Y-108596000D01*
X133549000Y-105994000D01*
X134651000Y-105994000D01*
X134651000Y-108596000D01*
G37*
G36*
X151521000Y-108356000D02*
G01*
X149419000Y-108356000D01*
X149419000Y-106754000D01*
X151521000Y-106754000D01*
X151521000Y-108356000D01*
G37*
G36*
X159625512Y-104259927D02*
G01*
X159774812Y-104289624D01*
X159938784Y-104357544D01*
X160086354Y-104456147D01*
X160211853Y-104581646D01*
X160310456Y-104729216D01*
X160378376Y-104893188D01*
X160413000Y-105067259D01*
X160413000Y-105244741D01*
X160378376Y-105418812D01*
X160310456Y-105582784D01*
X160211853Y-105730354D01*
X160086354Y-105855853D01*
X159938784Y-105954456D01*
X159774812Y-106022376D01*
X159625512Y-106052073D01*
X159600742Y-106057000D01*
X159423258Y-106057000D01*
X159398488Y-106052073D01*
X159249188Y-106022376D01*
X159085216Y-105954456D01*
X158937646Y-105855853D01*
X158812147Y-105730354D01*
X158713544Y-105582784D01*
X158645624Y-105418812D01*
X158611000Y-105244741D01*
X158611000Y-105067259D01*
X158645624Y-104893188D01*
X158713544Y-104729216D01*
X158812147Y-104581646D01*
X158937646Y-104456147D01*
X159085216Y-104357544D01*
X159249188Y-104289624D01*
X159398488Y-104259927D01*
X159423258Y-104255000D01*
X159600742Y-104255000D01*
X159625512Y-104259927D01*
G37*
G36*
X144218674Y-104409465D02*
G01*
X144256367Y-104420899D01*
X144291103Y-104439466D01*
X144321548Y-104464452D01*
X144346534Y-104494897D01*
X144365101Y-104529633D01*
X144376535Y-104567326D01*
X144381000Y-104612661D01*
X144381000Y-105699339D01*
X144376535Y-105744674D01*
X144365101Y-105782367D01*
X144346534Y-105817103D01*
X144321548Y-105847548D01*
X144291103Y-105872534D01*
X144256367Y-105891101D01*
X144218674Y-105902535D01*
X144173339Y-105907000D01*
X143336661Y-105907000D01*
X143291326Y-105902535D01*
X143253633Y-105891101D01*
X143218897Y-105872534D01*
X143188452Y-105847548D01*
X143163466Y-105817103D01*
X143144899Y-105782367D01*
X143133465Y-105744674D01*
X143129000Y-105699339D01*
X143129000Y-104612661D01*
X143133465Y-104567326D01*
X143144899Y-104529633D01*
X143163466Y-104494897D01*
X143188452Y-104464452D01*
X143218897Y-104439466D01*
X143253633Y-104420899D01*
X143291326Y-104409465D01*
X143336661Y-104405000D01*
X144173339Y-104405000D01*
X144218674Y-104409465D01*
G37*
G36*
X146268674Y-104409465D02*
G01*
X146306367Y-104420899D01*
X146341103Y-104439466D01*
X146371548Y-104464452D01*
X146396534Y-104494897D01*
X146415101Y-104529633D01*
X146426535Y-104567326D01*
X146431000Y-104612661D01*
X146431000Y-105699339D01*
X146426535Y-105744674D01*
X146415101Y-105782367D01*
X146396534Y-105817103D01*
X146371548Y-105847548D01*
X146341103Y-105872534D01*
X146306367Y-105891101D01*
X146268674Y-105902535D01*
X146223339Y-105907000D01*
X145386661Y-105907000D01*
X145341326Y-105902535D01*
X145303633Y-105891101D01*
X145268897Y-105872534D01*
X145238452Y-105847548D01*
X145213466Y-105817103D01*
X145194899Y-105782367D01*
X145183465Y-105744674D01*
X145179000Y-105699339D01*
X145179000Y-104612661D01*
X145183465Y-104567326D01*
X145194899Y-104529633D01*
X145213466Y-104494897D01*
X145238452Y-104464452D01*
X145268897Y-104439466D01*
X145303633Y-104420899D01*
X145341326Y-104409465D01*
X145386661Y-104405000D01*
X146223339Y-104405000D01*
X146268674Y-104409465D01*
G37*
G36*
X163959000Y-104991000D02*
G01*
X161857000Y-104991000D01*
X161857000Y-103289000D01*
X163959000Y-103289000D01*
X163959000Y-104991000D01*
G37*
G36*
X169359000Y-104991000D02*
G01*
X167257000Y-104991000D01*
X167257000Y-103289000D01*
X169359000Y-103289000D01*
X169359000Y-104991000D01*
G37*
G36*
X151983674Y-102758465D02*
G01*
X152021367Y-102769899D01*
X152056103Y-102788466D01*
X152086548Y-102813452D01*
X152111534Y-102843897D01*
X152130101Y-102878633D01*
X152141535Y-102916326D01*
X152146000Y-102961661D01*
X152146000Y-104048339D01*
X152141535Y-104093674D01*
X152130101Y-104131367D01*
X152111534Y-104166103D01*
X152086548Y-104196548D01*
X152056103Y-104221534D01*
X152021367Y-104240101D01*
X151983674Y-104251535D01*
X151938339Y-104256000D01*
X151101661Y-104256000D01*
X151056326Y-104251535D01*
X151018633Y-104240101D01*
X150983897Y-104221534D01*
X150953452Y-104196548D01*
X150928466Y-104166103D01*
X150909899Y-104131367D01*
X150898465Y-104093674D01*
X150894000Y-104048339D01*
X150894000Y-102961661D01*
X150898465Y-102916326D01*
X150909899Y-102878633D01*
X150928466Y-102843897D01*
X150953452Y-102813452D01*
X150983897Y-102788466D01*
X151018633Y-102769899D01*
X151056326Y-102758465D01*
X151101661Y-102754000D01*
X151938339Y-102754000D01*
X151983674Y-102758465D01*
G37*
G36*
X149933674Y-102758465D02*
G01*
X149971367Y-102769899D01*
X150006103Y-102788466D01*
X150036548Y-102813452D01*
X150061534Y-102843897D01*
X150080101Y-102878633D01*
X150091535Y-102916326D01*
X150096000Y-102961661D01*
X150096000Y-104048339D01*
X150091535Y-104093674D01*
X150080101Y-104131367D01*
X150061534Y-104166103D01*
X150036548Y-104196548D01*
X150006103Y-104221534D01*
X149971367Y-104240101D01*
X149933674Y-104251535D01*
X149888339Y-104256000D01*
X149051661Y-104256000D01*
X149006326Y-104251535D01*
X148968633Y-104240101D01*
X148933897Y-104221534D01*
X148903452Y-104196548D01*
X148878466Y-104166103D01*
X148859899Y-104131367D01*
X148848465Y-104093674D01*
X148844000Y-104048339D01*
X148844000Y-102961661D01*
X148848465Y-102916326D01*
X148859899Y-102878633D01*
X148878466Y-102843897D01*
X148903452Y-102813452D01*
X148933897Y-102788466D01*
X148968633Y-102769899D01*
X149006326Y-102758465D01*
X149051661Y-102754000D01*
X149888339Y-102754000D01*
X149933674Y-102758465D01*
G37*
G36*
X130008126Y-98593698D02*
G01*
X130008730Y-98593757D01*
X130029460Y-98597881D01*
X130047842Y-98605495D01*
X130064386Y-98616550D01*
X130078450Y-98630614D01*
X130089505Y-98647158D01*
X130097119Y-98665540D01*
X130101243Y-98686270D01*
X130101302Y-98686874D01*
X130101852Y-98698062D01*
X130101852Y-103191938D01*
X130101302Y-103203126D01*
X130101243Y-103203730D01*
X130097119Y-103224460D01*
X130089505Y-103242842D01*
X130078450Y-103259386D01*
X130064386Y-103273450D01*
X130047842Y-103284505D01*
X130029460Y-103292119D01*
X130008730Y-103296243D01*
X130008126Y-103296302D01*
X129996938Y-103296852D01*
X126003062Y-103296852D01*
X125991874Y-103296302D01*
X125991270Y-103296243D01*
X125970540Y-103292119D01*
X125952158Y-103284505D01*
X125935614Y-103273450D01*
X125921550Y-103259386D01*
X125910495Y-103242842D01*
X125902881Y-103224460D01*
X125898757Y-103203730D01*
X125898698Y-103203126D01*
X125898148Y-103191938D01*
X125898148Y-98698062D01*
X125898698Y-98686874D01*
X125898757Y-98686270D01*
X125902881Y-98665540D01*
X125910495Y-98647158D01*
X125921550Y-98630614D01*
X125935614Y-98616550D01*
X125952158Y-98605495D01*
X125970540Y-98597881D01*
X125991270Y-98593757D01*
X125991874Y-98593698D01*
X126003062Y-98593148D01*
X129996938Y-98593148D01*
X130008126Y-98593698D01*
G37*
G36*
X146034928Y-102341764D02*
G01*
X146056009Y-102348160D01*
X146075445Y-102358548D01*
X146092476Y-102372524D01*
X146106452Y-102389555D01*
X146116840Y-102408991D01*
X146123236Y-102430072D01*
X146126000Y-102458140D01*
X146126000Y-102921860D01*
X146123236Y-102949928D01*
X146116840Y-102971009D01*
X146106452Y-102990445D01*
X146092476Y-103007476D01*
X146075445Y-103021452D01*
X146056009Y-103031840D01*
X146034928Y-103038236D01*
X146006860Y-103041000D01*
X144193140Y-103041000D01*
X144165072Y-103038236D01*
X144143991Y-103031840D01*
X144124555Y-103021452D01*
X144107524Y-103007476D01*
X144093548Y-102990445D01*
X144083160Y-102971009D01*
X144076764Y-102949928D01*
X144074000Y-102921860D01*
X144074000Y-102458140D01*
X144076764Y-102430072D01*
X144083160Y-102408991D01*
X144093548Y-102389555D01*
X144107524Y-102372524D01*
X144124555Y-102358548D01*
X144143991Y-102348160D01*
X144165072Y-102341764D01*
X144193140Y-102339000D01*
X146006860Y-102339000D01*
X146034928Y-102341764D01*
G37*
G36*
X141084928Y-102341764D02*
G01*
X141106009Y-102348160D01*
X141125445Y-102358548D01*
X141142476Y-102372524D01*
X141156452Y-102389555D01*
X141166840Y-102408991D01*
X141173236Y-102430072D01*
X141176000Y-102458140D01*
X141176000Y-102921860D01*
X141173236Y-102949928D01*
X141166840Y-102971009D01*
X141156452Y-102990445D01*
X141142476Y-103007476D01*
X141125445Y-103021452D01*
X141106009Y-103031840D01*
X141084928Y-103038236D01*
X141056860Y-103041000D01*
X139243140Y-103041000D01*
X139215072Y-103038236D01*
X139193991Y-103031840D01*
X139174555Y-103021452D01*
X139157524Y-103007476D01*
X139143548Y-102990445D01*
X139133160Y-102971009D01*
X139126764Y-102949928D01*
X139124000Y-102921860D01*
X139124000Y-102458140D01*
X139126764Y-102430072D01*
X139133160Y-102408991D01*
X139143548Y-102389555D01*
X139157524Y-102372524D01*
X139174555Y-102358548D01*
X139193991Y-102348160D01*
X139215072Y-102341764D01*
X139243140Y-102339000D01*
X141056860Y-102339000D01*
X141084928Y-102341764D01*
G37*
G36*
X156419674Y-101361465D02*
G01*
X156457367Y-101372899D01*
X156492103Y-101391466D01*
X156522548Y-101416452D01*
X156547534Y-101446897D01*
X156566101Y-101481633D01*
X156577535Y-101519326D01*
X156582000Y-101564661D01*
X156582000Y-102651339D01*
X156577535Y-102696674D01*
X156566101Y-102734367D01*
X156547534Y-102769103D01*
X156522548Y-102799548D01*
X156492103Y-102824534D01*
X156457367Y-102843101D01*
X156419674Y-102854535D01*
X156374339Y-102859000D01*
X155537661Y-102859000D01*
X155492326Y-102854535D01*
X155454633Y-102843101D01*
X155419897Y-102824534D01*
X155389452Y-102799548D01*
X155364466Y-102769103D01*
X155345899Y-102734367D01*
X155334465Y-102696674D01*
X155330000Y-102651339D01*
X155330000Y-101564661D01*
X155334465Y-101519326D01*
X155345899Y-101481633D01*
X155364466Y-101446897D01*
X155389452Y-101416452D01*
X155419897Y-101391466D01*
X155454633Y-101372899D01*
X155492326Y-101361465D01*
X155537661Y-101357000D01*
X156374339Y-101357000D01*
X156419674Y-101361465D01*
G37*
G36*
X154369674Y-101361465D02*
G01*
X154407367Y-101372899D01*
X154442103Y-101391466D01*
X154472548Y-101416452D01*
X154497534Y-101446897D01*
X154516101Y-101481633D01*
X154527535Y-101519326D01*
X154532000Y-101564661D01*
X154532000Y-102651339D01*
X154527535Y-102696674D01*
X154516101Y-102734367D01*
X154497534Y-102769103D01*
X154472548Y-102799548D01*
X154442103Y-102824534D01*
X154407367Y-102843101D01*
X154369674Y-102854535D01*
X154324339Y-102859000D01*
X153487661Y-102859000D01*
X153442326Y-102854535D01*
X153404633Y-102843101D01*
X153369897Y-102824534D01*
X153339452Y-102799548D01*
X153314466Y-102769103D01*
X153295899Y-102734367D01*
X153284465Y-102696674D01*
X153280000Y-102651339D01*
X153280000Y-101564661D01*
X153284465Y-101519326D01*
X153295899Y-101481633D01*
X153314466Y-101446897D01*
X153339452Y-101416452D01*
X153369897Y-101391466D01*
X153404633Y-101372899D01*
X153442326Y-101361465D01*
X153487661Y-101357000D01*
X154324339Y-101357000D01*
X154369674Y-101361465D01*
G37*
G36*
X146034928Y-101071764D02*
G01*
X146056009Y-101078160D01*
X146075445Y-101088548D01*
X146092476Y-101102524D01*
X146106452Y-101119555D01*
X146116840Y-101138991D01*
X146123236Y-101160072D01*
X146126000Y-101188140D01*
X146126000Y-101651860D01*
X146123236Y-101679928D01*
X146116840Y-101701009D01*
X146106452Y-101720445D01*
X146092476Y-101737476D01*
X146075445Y-101751452D01*
X146056009Y-101761840D01*
X146034928Y-101768236D01*
X146006860Y-101771000D01*
X144193140Y-101771000D01*
X144165072Y-101768236D01*
X144143991Y-101761840D01*
X144124555Y-101751452D01*
X144107524Y-101737476D01*
X144093548Y-101720445D01*
X144083160Y-101701009D01*
X144076764Y-101679928D01*
X144074000Y-101651860D01*
X144074000Y-101188140D01*
X144076764Y-101160072D01*
X144083160Y-101138991D01*
X144093548Y-101119555D01*
X144107524Y-101102524D01*
X144124555Y-101088548D01*
X144143991Y-101078160D01*
X144165072Y-101071764D01*
X144193140Y-101069000D01*
X146006860Y-101069000D01*
X146034928Y-101071764D01*
G37*
G36*
X141084928Y-101071764D02*
G01*
X141106009Y-101078160D01*
X141125445Y-101088548D01*
X141142476Y-101102524D01*
X141156452Y-101119555D01*
X141166840Y-101138991D01*
X141173236Y-101160072D01*
X141176000Y-101188140D01*
X141176000Y-101651860D01*
X141173236Y-101679928D01*
X141166840Y-101701009D01*
X141156452Y-101720445D01*
X141142476Y-101737476D01*
X141125445Y-101751452D01*
X141106009Y-101761840D01*
X141084928Y-101768236D01*
X141056860Y-101771000D01*
X139243140Y-101771000D01*
X139215072Y-101768236D01*
X139193991Y-101761840D01*
X139174555Y-101751452D01*
X139157524Y-101737476D01*
X139143548Y-101720445D01*
X139133160Y-101701009D01*
X139126764Y-101679928D01*
X139124000Y-101651860D01*
X139124000Y-101188140D01*
X139126764Y-101160072D01*
X139133160Y-101138991D01*
X139143548Y-101119555D01*
X139157524Y-101102524D01*
X139174555Y-101088548D01*
X139193991Y-101078160D01*
X139215072Y-101071764D01*
X139243140Y-101069000D01*
X141056860Y-101069000D01*
X141084928Y-101071764D01*
G37*
G36*
X165180674Y-99472465D02*
G01*
X165218367Y-99483899D01*
X165253103Y-99502466D01*
X165283548Y-99527452D01*
X165308534Y-99557897D01*
X165327101Y-99592633D01*
X165338535Y-99630326D01*
X165343000Y-99675661D01*
X165343000Y-100512339D01*
X165338535Y-100557674D01*
X165327101Y-100595367D01*
X165308534Y-100630103D01*
X165283548Y-100660548D01*
X165253103Y-100685534D01*
X165218367Y-100704101D01*
X165180674Y-100715535D01*
X165135339Y-100720000D01*
X164048661Y-100720000D01*
X164003326Y-100715535D01*
X163965633Y-100704101D01*
X163930897Y-100685534D01*
X163900452Y-100660548D01*
X163875466Y-100630103D01*
X163856899Y-100595367D01*
X163845465Y-100557674D01*
X163841000Y-100512339D01*
X163841000Y-99675661D01*
X163845465Y-99630326D01*
X163856899Y-99592633D01*
X163875466Y-99557897D01*
X163900452Y-99527452D01*
X163930897Y-99502466D01*
X163965633Y-99483899D01*
X164003326Y-99472465D01*
X164048661Y-99468000D01*
X165135339Y-99468000D01*
X165180674Y-99472465D01*
G37*
G36*
X162132674Y-99463465D02*
G01*
X162170367Y-99474899D01*
X162205103Y-99493466D01*
X162235548Y-99518452D01*
X162260534Y-99548897D01*
X162279101Y-99583633D01*
X162290535Y-99621326D01*
X162295000Y-99666661D01*
X162295000Y-100503339D01*
X162290535Y-100548674D01*
X162279101Y-100586367D01*
X162260534Y-100621103D01*
X162235548Y-100651548D01*
X162205103Y-100676534D01*
X162170367Y-100695101D01*
X162132674Y-100706535D01*
X162087339Y-100711000D01*
X161000661Y-100711000D01*
X160955326Y-100706535D01*
X160917633Y-100695101D01*
X160882897Y-100676534D01*
X160852452Y-100651548D01*
X160827466Y-100621103D01*
X160808899Y-100586367D01*
X160797465Y-100548674D01*
X160793000Y-100503339D01*
X160793000Y-99666661D01*
X160797465Y-99621326D01*
X160808899Y-99583633D01*
X160827466Y-99548897D01*
X160852452Y-99518452D01*
X160882897Y-99493466D01*
X160917633Y-99474899D01*
X160955326Y-99463465D01*
X161000661Y-99459000D01*
X162087339Y-99459000D01*
X162132674Y-99463465D01*
G37*
G36*
X141084928Y-99801764D02*
G01*
X141106009Y-99808160D01*
X141125445Y-99818548D01*
X141142476Y-99832524D01*
X141156452Y-99849555D01*
X141166840Y-99868991D01*
X141173236Y-99890072D01*
X141176000Y-99918140D01*
X141176000Y-100381860D01*
X141173236Y-100409928D01*
X141166840Y-100431009D01*
X141156452Y-100450445D01*
X141142476Y-100467476D01*
X141125445Y-100481452D01*
X141106009Y-100491840D01*
X141084928Y-100498236D01*
X141056860Y-100501000D01*
X139243140Y-100501000D01*
X139215072Y-100498236D01*
X139193991Y-100491840D01*
X139174555Y-100481452D01*
X139157524Y-100467476D01*
X139143548Y-100450445D01*
X139133160Y-100431009D01*
X139126764Y-100409928D01*
X139124000Y-100381860D01*
X139124000Y-99918140D01*
X139126764Y-99890072D01*
X139133160Y-99868991D01*
X139143548Y-99849555D01*
X139157524Y-99832524D01*
X139174555Y-99818548D01*
X139193991Y-99808160D01*
X139215072Y-99801764D01*
X139243140Y-99799000D01*
X141056860Y-99799000D01*
X141084928Y-99801764D01*
G37*
G36*
X146034928Y-99801764D02*
G01*
X146056009Y-99808160D01*
X146075445Y-99818548D01*
X146092476Y-99832524D01*
X146106452Y-99849555D01*
X146116840Y-99868991D01*
X146123236Y-99890072D01*
X146126000Y-99918140D01*
X146126000Y-100381860D01*
X146123236Y-100409928D01*
X146116840Y-100431009D01*
X146106452Y-100450445D01*
X146092476Y-100467476D01*
X146075445Y-100481452D01*
X146056009Y-100491840D01*
X146034928Y-100498236D01*
X146006860Y-100501000D01*
X144193140Y-100501000D01*
X144165072Y-100498236D01*
X144143991Y-100491840D01*
X144124555Y-100481452D01*
X144107524Y-100467476D01*
X144093548Y-100450445D01*
X144083160Y-100431009D01*
X144076764Y-100409928D01*
X144074000Y-100381860D01*
X144074000Y-99918140D01*
X144076764Y-99890072D01*
X144083160Y-99868991D01*
X144093548Y-99849555D01*
X144107524Y-99832524D01*
X144124555Y-99818548D01*
X144143991Y-99808160D01*
X144165072Y-99801764D01*
X144193140Y-99799000D01*
X146006860Y-99799000D01*
X146034928Y-99801764D01*
G37*
G36*
X168380141Y-98670262D02*
G01*
X168537812Y-98701624D01*
X168701784Y-98769544D01*
X168849354Y-98868147D01*
X168974853Y-98993646D01*
X169073456Y-99141216D01*
X169141376Y-99305188D01*
X169171073Y-99454488D01*
X169172859Y-99463465D01*
X169176000Y-99479259D01*
X169176000Y-99656741D01*
X169141376Y-99830812D01*
X169073456Y-99994784D01*
X168974853Y-100142354D01*
X168849354Y-100267853D01*
X168701784Y-100366456D01*
X168537812Y-100434376D01*
X168388512Y-100464073D01*
X168363742Y-100469000D01*
X168186258Y-100469000D01*
X168161488Y-100464073D01*
X168012188Y-100434376D01*
X167848216Y-100366456D01*
X167700646Y-100267853D01*
X167575147Y-100142354D01*
X167476544Y-99994784D01*
X167408624Y-99830812D01*
X167374000Y-99656741D01*
X167374000Y-99479259D01*
X167377142Y-99463465D01*
X167378927Y-99454488D01*
X167408624Y-99305188D01*
X167476544Y-99141216D01*
X167575147Y-98993646D01*
X167700646Y-98868147D01*
X167848216Y-98769544D01*
X168012188Y-98701624D01*
X168169859Y-98670262D01*
X168186258Y-98667000D01*
X168363742Y-98667000D01*
X168380141Y-98670262D01*
G37*
G36*
X146034928Y-98531764D02*
G01*
X146056009Y-98538160D01*
X146075445Y-98548548D01*
X146092476Y-98562524D01*
X146106452Y-98579555D01*
X146116840Y-98598991D01*
X146123236Y-98620072D01*
X146126000Y-98648140D01*
X146126000Y-99111860D01*
X146123236Y-99139928D01*
X146116840Y-99161009D01*
X146106452Y-99180445D01*
X146092476Y-99197476D01*
X146075445Y-99211452D01*
X146056009Y-99221840D01*
X146034928Y-99228236D01*
X146006860Y-99231000D01*
X144193140Y-99231000D01*
X144165072Y-99228236D01*
X144143991Y-99221840D01*
X144124555Y-99211452D01*
X144107524Y-99197476D01*
X144093548Y-99180445D01*
X144083160Y-99161009D01*
X144076764Y-99139928D01*
X144074000Y-99111860D01*
X144074000Y-98648140D01*
X144076764Y-98620072D01*
X144083160Y-98598991D01*
X144093548Y-98579555D01*
X144107524Y-98562524D01*
X144124555Y-98548548D01*
X144143991Y-98538160D01*
X144165072Y-98531764D01*
X144193140Y-98529000D01*
X146006860Y-98529000D01*
X146034928Y-98531764D01*
G37*
G36*
X141084928Y-98531764D02*
G01*
X141106009Y-98538160D01*
X141125445Y-98548548D01*
X141142476Y-98562524D01*
X141156452Y-98579555D01*
X141166840Y-98598991D01*
X141173236Y-98620072D01*
X141176000Y-98648140D01*
X141176000Y-99111860D01*
X141173236Y-99139928D01*
X141166840Y-99161009D01*
X141156452Y-99180445D01*
X141142476Y-99197476D01*
X141125445Y-99211452D01*
X141106009Y-99221840D01*
X141084928Y-99228236D01*
X141056860Y-99231000D01*
X139243140Y-99231000D01*
X139215072Y-99228236D01*
X139193991Y-99221840D01*
X139174555Y-99211452D01*
X139157524Y-99197476D01*
X139143548Y-99180445D01*
X139133160Y-99161009D01*
X139126764Y-99139928D01*
X139124000Y-99111860D01*
X139124000Y-98648140D01*
X139126764Y-98620072D01*
X139133160Y-98598991D01*
X139143548Y-98579555D01*
X139157524Y-98562524D01*
X139174555Y-98548548D01*
X139193991Y-98538160D01*
X139215072Y-98531764D01*
X139243140Y-98529000D01*
X141056860Y-98529000D01*
X141084928Y-98531764D01*
G37*
G36*
X158088674Y-97678465D02*
G01*
X158126367Y-97689899D01*
X158161103Y-97708466D01*
X158191548Y-97733452D01*
X158216534Y-97763897D01*
X158235101Y-97798633D01*
X158246535Y-97836326D01*
X158251000Y-97881661D01*
X158251000Y-98968339D01*
X158246535Y-99013674D01*
X158235101Y-99051367D01*
X158216534Y-99086103D01*
X158191548Y-99116548D01*
X158161103Y-99141534D01*
X158126367Y-99160101D01*
X158088674Y-99171535D01*
X158043339Y-99176000D01*
X157206661Y-99176000D01*
X157161326Y-99171535D01*
X157123633Y-99160101D01*
X157088897Y-99141534D01*
X157058452Y-99116548D01*
X157033466Y-99086103D01*
X157014899Y-99051367D01*
X157003465Y-99013674D01*
X156999000Y-98968339D01*
X156999000Y-97881661D01*
X157003465Y-97836326D01*
X157014899Y-97798633D01*
X157033466Y-97763897D01*
X157058452Y-97733452D01*
X157088897Y-97708466D01*
X157123633Y-97689899D01*
X157161326Y-97678465D01*
X157206661Y-97674000D01*
X158043339Y-97674000D01*
X158088674Y-97678465D01*
G37*
G36*
X156038674Y-97678465D02*
G01*
X156076367Y-97689899D01*
X156111103Y-97708466D01*
X156141548Y-97733452D01*
X156166534Y-97763897D01*
X156185101Y-97798633D01*
X156196535Y-97836326D01*
X156201000Y-97881661D01*
X156201000Y-98968339D01*
X156196535Y-99013674D01*
X156185101Y-99051367D01*
X156166534Y-99086103D01*
X156141548Y-99116548D01*
X156111103Y-99141534D01*
X156076367Y-99160101D01*
X156038674Y-99171535D01*
X155993339Y-99176000D01*
X155156661Y-99176000D01*
X155111326Y-99171535D01*
X155073633Y-99160101D01*
X155038897Y-99141534D01*
X155008452Y-99116548D01*
X154983466Y-99086103D01*
X154964899Y-99051367D01*
X154953465Y-99013674D01*
X154949000Y-98968339D01*
X154949000Y-97881661D01*
X154953465Y-97836326D01*
X154964899Y-97798633D01*
X154983466Y-97763897D01*
X155008452Y-97733452D01*
X155038897Y-97708466D01*
X155073633Y-97689899D01*
X155111326Y-97678465D01*
X155156661Y-97674000D01*
X155993339Y-97674000D01*
X156038674Y-97678465D01*
G37*
G36*
X151983674Y-97678465D02*
G01*
X152021367Y-97689899D01*
X152056103Y-97708466D01*
X152086548Y-97733452D01*
X152111534Y-97763897D01*
X152130101Y-97798633D01*
X152141535Y-97836326D01*
X152146000Y-97881661D01*
X152146000Y-98968339D01*
X152141535Y-99013674D01*
X152130101Y-99051367D01*
X152111534Y-99086103D01*
X152086548Y-99116548D01*
X152056103Y-99141534D01*
X152021367Y-99160101D01*
X151983674Y-99171535D01*
X151938339Y-99176000D01*
X151101661Y-99176000D01*
X151056326Y-99171535D01*
X151018633Y-99160101D01*
X150983897Y-99141534D01*
X150953452Y-99116548D01*
X150928466Y-99086103D01*
X150909899Y-99051367D01*
X150898465Y-99013674D01*
X150894000Y-98968339D01*
X150894000Y-97881661D01*
X150898465Y-97836326D01*
X150909899Y-97798633D01*
X150928466Y-97763897D01*
X150953452Y-97733452D01*
X150983897Y-97708466D01*
X151018633Y-97689899D01*
X151056326Y-97678465D01*
X151101661Y-97674000D01*
X151938339Y-97674000D01*
X151983674Y-97678465D01*
G37*
G36*
X149933674Y-97678465D02*
G01*
X149971367Y-97689899D01*
X150006103Y-97708466D01*
X150036548Y-97733452D01*
X150061534Y-97763897D01*
X150080101Y-97798633D01*
X150091535Y-97836326D01*
X150096000Y-97881661D01*
X150096000Y-98968339D01*
X150091535Y-99013674D01*
X150080101Y-99051367D01*
X150061534Y-99086103D01*
X150036548Y-99116548D01*
X150006103Y-99141534D01*
X149971367Y-99160101D01*
X149933674Y-99171535D01*
X149888339Y-99176000D01*
X149051661Y-99176000D01*
X149006326Y-99171535D01*
X148968633Y-99160101D01*
X148933897Y-99141534D01*
X148903452Y-99116548D01*
X148878466Y-99086103D01*
X148859899Y-99051367D01*
X148848465Y-99013674D01*
X148844000Y-98968339D01*
X148844000Y-97881661D01*
X148848465Y-97836326D01*
X148859899Y-97798633D01*
X148878466Y-97763897D01*
X148903452Y-97733452D01*
X148933897Y-97708466D01*
X148968633Y-97689899D01*
X149006326Y-97678465D01*
X149051661Y-97674000D01*
X149888339Y-97674000D01*
X149933674Y-97678465D01*
G37*
G36*
X165180674Y-97422465D02*
G01*
X165218367Y-97433899D01*
X165253103Y-97452466D01*
X165283548Y-97477452D01*
X165308534Y-97507897D01*
X165327101Y-97542633D01*
X165338535Y-97580326D01*
X165343000Y-97625661D01*
X165343000Y-98462339D01*
X165338535Y-98507674D01*
X165327101Y-98545367D01*
X165308534Y-98580103D01*
X165283548Y-98610548D01*
X165253103Y-98635534D01*
X165218367Y-98654101D01*
X165180674Y-98665535D01*
X165135339Y-98670000D01*
X164048661Y-98670000D01*
X164003326Y-98665535D01*
X163965633Y-98654101D01*
X163930897Y-98635534D01*
X163900452Y-98610548D01*
X163875466Y-98580103D01*
X163856899Y-98545367D01*
X163845465Y-98507674D01*
X163841000Y-98462339D01*
X163841000Y-97625661D01*
X163845465Y-97580326D01*
X163856899Y-97542633D01*
X163875466Y-97507897D01*
X163900452Y-97477452D01*
X163930897Y-97452466D01*
X163965633Y-97433899D01*
X164003326Y-97422465D01*
X164048661Y-97418000D01*
X165135339Y-97418000D01*
X165180674Y-97422465D01*
G37*
G36*
X162132674Y-97413465D02*
G01*
X162170367Y-97424899D01*
X162205103Y-97443466D01*
X162235548Y-97468452D01*
X162260534Y-97498897D01*
X162279101Y-97533633D01*
X162290535Y-97571326D01*
X162295000Y-97616661D01*
X162295000Y-98453339D01*
X162290535Y-98498674D01*
X162279101Y-98536367D01*
X162260534Y-98571103D01*
X162235548Y-98601548D01*
X162205103Y-98626534D01*
X162170367Y-98645101D01*
X162132674Y-98656535D01*
X162087339Y-98661000D01*
X161000661Y-98661000D01*
X160955326Y-98656535D01*
X160917633Y-98645101D01*
X160882897Y-98626534D01*
X160852452Y-98601548D01*
X160827466Y-98571103D01*
X160808899Y-98536367D01*
X160797465Y-98498674D01*
X160793000Y-98453339D01*
X160793000Y-97616661D01*
X160797465Y-97571326D01*
X160808899Y-97533633D01*
X160827466Y-97498897D01*
X160852452Y-97468452D01*
X160882897Y-97443466D01*
X160917633Y-97424899D01*
X160955326Y-97413465D01*
X161000661Y-97409000D01*
X162087339Y-97409000D01*
X162132674Y-97413465D01*
G37*
G36*
X146034928Y-97261764D02*
G01*
X146056009Y-97268160D01*
X146075445Y-97278548D01*
X146092476Y-97292524D01*
X146106452Y-97309555D01*
X146116840Y-97328991D01*
X146123236Y-97350072D01*
X146126000Y-97378140D01*
X146126000Y-97841860D01*
X146123236Y-97869928D01*
X146116840Y-97891009D01*
X146106452Y-97910445D01*
X146092476Y-97927476D01*
X146075445Y-97941452D01*
X146056009Y-97951840D01*
X146034928Y-97958236D01*
X146006860Y-97961000D01*
X144193140Y-97961000D01*
X144165072Y-97958236D01*
X144143991Y-97951840D01*
X144124555Y-97941452D01*
X144107524Y-97927476D01*
X144093548Y-97910445D01*
X144083160Y-97891009D01*
X144076764Y-97869928D01*
X144074000Y-97841860D01*
X144074000Y-97378140D01*
X144076764Y-97350072D01*
X144083160Y-97328991D01*
X144093548Y-97309555D01*
X144107524Y-97292524D01*
X144124555Y-97278548D01*
X144143991Y-97268160D01*
X144165072Y-97261764D01*
X144193140Y-97259000D01*
X146006860Y-97259000D01*
X146034928Y-97261764D01*
G37*
G36*
X141084928Y-97261764D02*
G01*
X141106009Y-97268160D01*
X141125445Y-97278548D01*
X141142476Y-97292524D01*
X141156452Y-97309555D01*
X141166840Y-97328991D01*
X141173236Y-97350072D01*
X141176000Y-97378140D01*
X141176000Y-97841860D01*
X141173236Y-97869928D01*
X141166840Y-97891009D01*
X141156452Y-97910445D01*
X141142476Y-97927476D01*
X141125445Y-97941452D01*
X141106009Y-97951840D01*
X141084928Y-97958236D01*
X141056860Y-97961000D01*
X139243140Y-97961000D01*
X139215072Y-97958236D01*
X139193991Y-97951840D01*
X139174555Y-97941452D01*
X139157524Y-97927476D01*
X139143548Y-97910445D01*
X139133160Y-97891009D01*
X139126764Y-97869928D01*
X139124000Y-97841860D01*
X139124000Y-97378140D01*
X139126764Y-97350072D01*
X139133160Y-97328991D01*
X139143548Y-97309555D01*
X139157524Y-97292524D01*
X139174555Y-97278548D01*
X139193991Y-97268160D01*
X139215072Y-97261764D01*
X139243140Y-97259000D01*
X141056860Y-97259000D01*
X141084928Y-97261764D01*
G37*
G36*
X169176000Y-97929000D02*
G01*
X167374000Y-97929000D01*
X167374000Y-96127000D01*
X169176000Y-96127000D01*
X169176000Y-97929000D01*
G37*
G36*
X141084928Y-95991764D02*
G01*
X141106009Y-95998160D01*
X141125445Y-96008548D01*
X141142476Y-96022524D01*
X141156452Y-96039555D01*
X141166840Y-96058991D01*
X141173236Y-96080072D01*
X141176000Y-96108140D01*
X141176000Y-96571860D01*
X141173236Y-96599928D01*
X141166840Y-96621009D01*
X141156452Y-96640445D01*
X141142476Y-96657476D01*
X141125445Y-96671452D01*
X141106009Y-96681840D01*
X141084928Y-96688236D01*
X141056860Y-96691000D01*
X139243140Y-96691000D01*
X139215072Y-96688236D01*
X139193991Y-96681840D01*
X139174555Y-96671452D01*
X139157524Y-96657476D01*
X139143548Y-96640445D01*
X139133160Y-96621009D01*
X139126764Y-96599928D01*
X139124000Y-96571860D01*
X139124000Y-96108140D01*
X139126764Y-96080072D01*
X139133160Y-96058991D01*
X139143548Y-96039555D01*
X139157524Y-96022524D01*
X139174555Y-96008548D01*
X139193991Y-95998160D01*
X139215072Y-95991764D01*
X139243140Y-95989000D01*
X141056860Y-95989000D01*
X141084928Y-95991764D01*
G37*
G36*
X146034928Y-95991764D02*
G01*
X146056009Y-95998160D01*
X146075445Y-96008548D01*
X146092476Y-96022524D01*
X146106452Y-96039555D01*
X146116840Y-96058991D01*
X146123236Y-96080072D01*
X146126000Y-96108140D01*
X146126000Y-96571860D01*
X146123236Y-96599928D01*
X146116840Y-96621009D01*
X146106452Y-96640445D01*
X146092476Y-96657476D01*
X146075445Y-96671452D01*
X146056009Y-96681840D01*
X146034928Y-96688236D01*
X146006860Y-96691000D01*
X144193140Y-96691000D01*
X144165072Y-96688236D01*
X144143991Y-96681840D01*
X144124555Y-96671452D01*
X144107524Y-96657476D01*
X144093548Y-96640445D01*
X144083160Y-96621009D01*
X144076764Y-96599928D01*
X144074000Y-96571860D01*
X144074000Y-96108140D01*
X144076764Y-96080072D01*
X144083160Y-96058991D01*
X144093548Y-96039555D01*
X144107524Y-96022524D01*
X144124555Y-96008548D01*
X144143991Y-95998160D01*
X144165072Y-95991764D01*
X144193140Y-95989000D01*
X146006860Y-95989000D01*
X146034928Y-95991764D01*
G37*
G36*
X162953000Y-95897000D02*
G01*
X161151000Y-95897000D01*
X161151000Y-94095000D01*
X162953000Y-94095000D01*
X162953000Y-95897000D01*
G37*
G36*
X146034928Y-94721764D02*
G01*
X146056009Y-94728160D01*
X146075445Y-94738548D01*
X146092476Y-94752524D01*
X146106452Y-94769555D01*
X146116840Y-94788991D01*
X146123236Y-94810072D01*
X146126000Y-94838140D01*
X146126000Y-95301860D01*
X146123236Y-95329928D01*
X146116840Y-95351009D01*
X146106452Y-95370445D01*
X146092476Y-95387476D01*
X146075445Y-95401452D01*
X146056009Y-95411840D01*
X146034928Y-95418236D01*
X146006860Y-95421000D01*
X144193140Y-95421000D01*
X144165072Y-95418236D01*
X144143991Y-95411840D01*
X144124555Y-95401452D01*
X144107524Y-95387476D01*
X144093548Y-95370445D01*
X144083160Y-95351009D01*
X144076764Y-95329928D01*
X144074000Y-95301860D01*
X144074000Y-94838140D01*
X144076764Y-94810072D01*
X144083160Y-94788991D01*
X144093548Y-94769555D01*
X144107524Y-94752524D01*
X144124555Y-94738548D01*
X144143991Y-94728160D01*
X144165072Y-94721764D01*
X144193140Y-94719000D01*
X146006860Y-94719000D01*
X146034928Y-94721764D01*
G37*
G36*
X141084928Y-94721764D02*
G01*
X141106009Y-94728160D01*
X141125445Y-94738548D01*
X141142476Y-94752524D01*
X141156452Y-94769555D01*
X141166840Y-94788991D01*
X141173236Y-94810072D01*
X141176000Y-94838140D01*
X141176000Y-95301860D01*
X141173236Y-95329928D01*
X141166840Y-95351009D01*
X141156452Y-95370445D01*
X141142476Y-95387476D01*
X141125445Y-95401452D01*
X141106009Y-95411840D01*
X141084928Y-95418236D01*
X141056860Y-95421000D01*
X139243140Y-95421000D01*
X139215072Y-95418236D01*
X139193991Y-95411840D01*
X139174555Y-95401452D01*
X139157524Y-95387476D01*
X139143548Y-95370445D01*
X139133160Y-95351009D01*
X139126764Y-95329928D01*
X139124000Y-95301860D01*
X139124000Y-94838140D01*
X139126764Y-94810072D01*
X139133160Y-94788991D01*
X139143548Y-94769555D01*
X139157524Y-94752524D01*
X139174555Y-94738548D01*
X139193991Y-94728160D01*
X139215072Y-94721764D01*
X139243140Y-94719000D01*
X141056860Y-94719000D01*
X141084928Y-94721764D01*
G37*
G36*
X157943674Y-93868465D02*
G01*
X157981367Y-93879899D01*
X158016103Y-93898466D01*
X158046548Y-93923452D01*
X158071534Y-93953897D01*
X158090101Y-93988633D01*
X158101535Y-94026326D01*
X158106000Y-94071661D01*
X158106000Y-95158339D01*
X158101535Y-95203674D01*
X158090101Y-95241367D01*
X158071534Y-95276103D01*
X158046548Y-95306548D01*
X158016103Y-95331534D01*
X157981367Y-95350101D01*
X157943674Y-95361535D01*
X157898339Y-95366000D01*
X157061661Y-95366000D01*
X157016326Y-95361535D01*
X156978633Y-95350101D01*
X156943897Y-95331534D01*
X156913452Y-95306548D01*
X156888466Y-95276103D01*
X156869899Y-95241367D01*
X156858465Y-95203674D01*
X156854000Y-95158339D01*
X156854000Y-94071661D01*
X156858465Y-94026326D01*
X156869899Y-93988633D01*
X156888466Y-93953897D01*
X156913452Y-93923452D01*
X156943897Y-93898466D01*
X156978633Y-93879899D01*
X157016326Y-93868465D01*
X157061661Y-93864000D01*
X157898339Y-93864000D01*
X157943674Y-93868465D01*
G37*
G36*
X155893674Y-93868465D02*
G01*
X155931367Y-93879899D01*
X155966103Y-93898466D01*
X155996548Y-93923452D01*
X156021534Y-93953897D01*
X156040101Y-93988633D01*
X156051535Y-94026326D01*
X156056000Y-94071661D01*
X156056000Y-95158339D01*
X156051535Y-95203674D01*
X156040101Y-95241367D01*
X156021534Y-95276103D01*
X155996548Y-95306548D01*
X155966103Y-95331534D01*
X155931367Y-95350101D01*
X155893674Y-95361535D01*
X155848339Y-95366000D01*
X155011661Y-95366000D01*
X154966326Y-95361535D01*
X154928633Y-95350101D01*
X154893897Y-95331534D01*
X154863452Y-95306548D01*
X154838466Y-95276103D01*
X154819899Y-95241367D01*
X154808465Y-95203674D01*
X154804000Y-95158339D01*
X154804000Y-94071661D01*
X154808465Y-94026326D01*
X154819899Y-93988633D01*
X154838466Y-93953897D01*
X154863452Y-93923452D01*
X154893897Y-93898466D01*
X154928633Y-93879899D01*
X154966326Y-93868465D01*
X155011661Y-93864000D01*
X155848339Y-93864000D01*
X155893674Y-93868465D01*
G37*
G36*
X151983674Y-93233465D02*
G01*
X152021367Y-93244899D01*
X152056103Y-93263466D01*
X152086548Y-93288452D01*
X152111534Y-93318897D01*
X152130101Y-93353633D01*
X152141535Y-93391326D01*
X152146000Y-93436661D01*
X152146000Y-94523339D01*
X152141535Y-94568674D01*
X152130101Y-94606367D01*
X152111534Y-94641103D01*
X152086548Y-94671548D01*
X152056103Y-94696534D01*
X152021367Y-94715101D01*
X151983674Y-94726535D01*
X151938339Y-94731000D01*
X151101661Y-94731000D01*
X151056326Y-94726535D01*
X151018633Y-94715101D01*
X150983897Y-94696534D01*
X150953452Y-94671548D01*
X150928466Y-94641103D01*
X150909899Y-94606367D01*
X150898465Y-94568674D01*
X150894000Y-94523339D01*
X150894000Y-93436661D01*
X150898465Y-93391326D01*
X150909899Y-93353633D01*
X150928466Y-93318897D01*
X150953452Y-93288452D01*
X150983897Y-93263466D01*
X151018633Y-93244899D01*
X151056326Y-93233465D01*
X151101661Y-93229000D01*
X151938339Y-93229000D01*
X151983674Y-93233465D01*
G37*
G36*
X149933674Y-93233465D02*
G01*
X149971367Y-93244899D01*
X150006103Y-93263466D01*
X150036548Y-93288452D01*
X150061534Y-93318897D01*
X150080101Y-93353633D01*
X150091535Y-93391326D01*
X150096000Y-93436661D01*
X150096000Y-94523339D01*
X150091535Y-94568674D01*
X150080101Y-94606367D01*
X150061534Y-94641103D01*
X150036548Y-94671548D01*
X150006103Y-94696534D01*
X149971367Y-94715101D01*
X149933674Y-94726535D01*
X149888339Y-94731000D01*
X149051661Y-94731000D01*
X149006326Y-94726535D01*
X148968633Y-94715101D01*
X148933897Y-94696534D01*
X148903452Y-94671548D01*
X148878466Y-94641103D01*
X148859899Y-94606367D01*
X148848465Y-94568674D01*
X148844000Y-94523339D01*
X148844000Y-93436661D01*
X148848465Y-93391326D01*
X148859899Y-93353633D01*
X148878466Y-93318897D01*
X148903452Y-93288452D01*
X148933897Y-93263466D01*
X148968633Y-93244899D01*
X149006326Y-93233465D01*
X149051661Y-93229000D01*
X149888339Y-93229000D01*
X149933674Y-93233465D01*
G37*
G36*
X126651000Y-93396000D02*
G01*
X125549000Y-93396000D01*
X125549000Y-90794000D01*
X126651000Y-90794000D01*
X126651000Y-93396000D01*
G37*
G36*
X132651000Y-93396000D02*
G01*
X131549000Y-93396000D01*
X131549000Y-90794000D01*
X132651000Y-90794000D01*
X132651000Y-93396000D01*
G37*
G36*
X122651000Y-93396000D02*
G01*
X121549000Y-93396000D01*
X121549000Y-90794000D01*
X122651000Y-90794000D01*
X122651000Y-93396000D01*
G37*
G36*
X134651000Y-93396000D02*
G01*
X133549000Y-93396000D01*
X133549000Y-90794000D01*
X134651000Y-90794000D01*
X134651000Y-93396000D01*
G37*
G36*
X124651000Y-93396000D02*
G01*
X123549000Y-93396000D01*
X123549000Y-90794000D01*
X124651000Y-90794000D01*
X124651000Y-93396000D01*
G37*
G36*
X128651000Y-93396000D02*
G01*
X127549000Y-93396000D01*
X127549000Y-90794000D01*
X128651000Y-90794000D01*
X128651000Y-93396000D01*
G37*
G36*
X130651000Y-93396000D02*
G01*
X129549000Y-93396000D01*
X129549000Y-90794000D01*
X130651000Y-90794000D01*
X130651000Y-93396000D01*
G37*
G36*
X136651000Y-93396000D02*
G01*
X135549000Y-93396000D01*
X135549000Y-90794000D01*
X136651000Y-90794000D01*
X136651000Y-93396000D01*
G37*
G36*
X141617000Y-93357000D02*
G01*
X139815000Y-93357000D01*
X139815000Y-91555000D01*
X141617000Y-91555000D01*
X141617000Y-93357000D01*
G37*
G36*
X145909512Y-91559927D02*
G01*
X146058812Y-91589624D01*
X146222784Y-91657544D01*
X146370354Y-91756147D01*
X146495853Y-91881646D01*
X146594456Y-92029216D01*
X146662376Y-92193188D01*
X146697000Y-92367259D01*
X146697000Y-92544741D01*
X146662376Y-92718812D01*
X146594456Y-92882784D01*
X146495853Y-93030354D01*
X146370354Y-93155853D01*
X146222784Y-93254456D01*
X146058812Y-93322376D01*
X145920124Y-93349962D01*
X145884742Y-93357000D01*
X145707258Y-93357000D01*
X145671876Y-93349962D01*
X145533188Y-93322376D01*
X145369216Y-93254456D01*
X145221646Y-93155853D01*
X145096147Y-93030354D01*
X144997544Y-92882784D01*
X144929624Y-92718812D01*
X144895000Y-92544741D01*
X144895000Y-92367259D01*
X144929624Y-92193188D01*
X144997544Y-92029216D01*
X145096147Y-91881646D01*
X145221646Y-91756147D01*
X145369216Y-91657544D01*
X145533188Y-91589624D01*
X145682488Y-91559927D01*
X145707258Y-91555000D01*
X145884742Y-91555000D01*
X145909512Y-91559927D01*
G37*
G36*
X143369512Y-91559927D02*
G01*
X143518812Y-91589624D01*
X143682784Y-91657544D01*
X143830354Y-91756147D01*
X143955853Y-91881646D01*
X144054456Y-92029216D01*
X144122376Y-92193188D01*
X144157000Y-92367259D01*
X144157000Y-92544741D01*
X144122376Y-92718812D01*
X144054456Y-92882784D01*
X143955853Y-93030354D01*
X143830354Y-93155853D01*
X143682784Y-93254456D01*
X143518812Y-93322376D01*
X143380124Y-93349962D01*
X143344742Y-93357000D01*
X143167258Y-93357000D01*
X143131876Y-93349962D01*
X142993188Y-93322376D01*
X142829216Y-93254456D01*
X142681646Y-93155853D01*
X142556147Y-93030354D01*
X142457544Y-92882784D01*
X142389624Y-92718812D01*
X142355000Y-92544741D01*
X142355000Y-92367259D01*
X142389624Y-92193188D01*
X142457544Y-92029216D01*
X142556147Y-91881646D01*
X142681646Y-91756147D01*
X142829216Y-91657544D01*
X142993188Y-91589624D01*
X143142488Y-91559927D01*
X143167258Y-91555000D01*
X143344742Y-91555000D01*
X143369512Y-91559927D01*
G37*
G36*
X155013674Y-90058465D02*
G01*
X155051367Y-90069899D01*
X155086103Y-90088466D01*
X155116548Y-90113452D01*
X155141534Y-90143897D01*
X155160101Y-90178633D01*
X155171535Y-90216326D01*
X155176000Y-90261661D01*
X155176000Y-91348339D01*
X155171535Y-91393674D01*
X155160101Y-91431367D01*
X155141534Y-91466103D01*
X155116548Y-91496548D01*
X155086103Y-91521534D01*
X155051367Y-91540101D01*
X155013674Y-91551535D01*
X154968339Y-91556000D01*
X154131661Y-91556000D01*
X154086326Y-91551535D01*
X154048633Y-91540101D01*
X154013897Y-91521534D01*
X153983452Y-91496548D01*
X153958466Y-91466103D01*
X153939899Y-91431367D01*
X153928465Y-91393674D01*
X153924000Y-91348339D01*
X153924000Y-90261661D01*
X153928465Y-90216326D01*
X153939899Y-90178633D01*
X153958466Y-90143897D01*
X153983452Y-90113452D01*
X154013897Y-90088466D01*
X154048633Y-90069899D01*
X154086326Y-90058465D01*
X154131661Y-90054000D01*
X154968339Y-90054000D01*
X155013674Y-90058465D01*
G37*
G36*
X157063674Y-90058465D02*
G01*
X157101367Y-90069899D01*
X157136103Y-90088466D01*
X157166548Y-90113452D01*
X157191534Y-90143897D01*
X157210101Y-90178633D01*
X157221535Y-90216326D01*
X157226000Y-90261661D01*
X157226000Y-91348339D01*
X157221535Y-91393674D01*
X157210101Y-91431367D01*
X157191534Y-91466103D01*
X157166548Y-91496548D01*
X157136103Y-91521534D01*
X157101367Y-91540101D01*
X157063674Y-91551535D01*
X157018339Y-91556000D01*
X156181661Y-91556000D01*
X156136326Y-91551535D01*
X156098633Y-91540101D01*
X156063897Y-91521534D01*
X156033452Y-91496548D01*
X156008466Y-91466103D01*
X155989899Y-91431367D01*
X155978465Y-91393674D01*
X155974000Y-91348339D01*
X155974000Y-90261661D01*
X155978465Y-90216326D01*
X155989899Y-90178633D01*
X156008466Y-90143897D01*
X156033452Y-90113452D01*
X156063897Y-90088466D01*
X156098633Y-90069899D01*
X156136326Y-90058465D01*
X156181661Y-90054000D01*
X157018339Y-90054000D01*
X157063674Y-90058465D01*
G37*
G36*
X163959000Y-90767000D02*
G01*
X161857000Y-90767000D01*
X161857000Y-89065000D01*
X163959000Y-89065000D01*
X163959000Y-90767000D01*
G37*
G36*
X169359000Y-90767000D02*
G01*
X167257000Y-90767000D01*
X167257000Y-89065000D01*
X169359000Y-89065000D01*
X169359000Y-90767000D01*
G37*
G36*
X141871000Y-89293000D02*
G01*
X140069000Y-89293000D01*
X140069000Y-87491000D01*
X141871000Y-87491000D01*
X141871000Y-89293000D01*
G37*
G36*
X146163512Y-87495927D02*
G01*
X146312812Y-87525624D01*
X146476784Y-87593544D01*
X146624354Y-87692147D01*
X146749853Y-87817646D01*
X146848456Y-87965216D01*
X146916376Y-88129188D01*
X146951000Y-88303259D01*
X146951000Y-88480741D01*
X146916376Y-88654812D01*
X146848456Y-88818784D01*
X146749853Y-88966354D01*
X146624354Y-89091853D01*
X146476784Y-89190456D01*
X146312812Y-89258376D01*
X146163512Y-89288073D01*
X146138742Y-89293000D01*
X145961258Y-89293000D01*
X145936488Y-89288073D01*
X145787188Y-89258376D01*
X145623216Y-89190456D01*
X145475646Y-89091853D01*
X145350147Y-88966354D01*
X145251544Y-88818784D01*
X145183624Y-88654812D01*
X145149000Y-88480741D01*
X145149000Y-88303259D01*
X145183624Y-88129188D01*
X145251544Y-87965216D01*
X145350147Y-87817646D01*
X145475646Y-87692147D01*
X145623216Y-87593544D01*
X145787188Y-87525624D01*
X145936488Y-87495927D01*
X145961258Y-87491000D01*
X146138742Y-87491000D01*
X146163512Y-87495927D01*
G37*
G36*
X143623512Y-87495927D02*
G01*
X143772812Y-87525624D01*
X143936784Y-87593544D01*
X144084354Y-87692147D01*
X144209853Y-87817646D01*
X144308456Y-87965216D01*
X144376376Y-88129188D01*
X144411000Y-88303259D01*
X144411000Y-88480741D01*
X144376376Y-88654812D01*
X144308456Y-88818784D01*
X144209853Y-88966354D01*
X144084354Y-89091853D01*
X143936784Y-89190456D01*
X143772812Y-89258376D01*
X143623512Y-89288073D01*
X143598742Y-89293000D01*
X143421258Y-89293000D01*
X143396488Y-89288073D01*
X143247188Y-89258376D01*
X143083216Y-89190456D01*
X142935646Y-89091853D01*
X142810147Y-88966354D01*
X142711544Y-88818784D01*
X142643624Y-88654812D01*
X142609000Y-88480741D01*
X142609000Y-88303259D01*
X142643624Y-88129188D01*
X142711544Y-87965216D01*
X142810147Y-87817646D01*
X142935646Y-87692147D01*
X143083216Y-87593544D01*
X143247188Y-87525624D01*
X143396488Y-87495927D01*
X143421258Y-87491000D01*
X143598742Y-87491000D01*
X143623512Y-87495927D01*
G37*
G36*
X125589512Y-86987927D02*
G01*
X125738812Y-87017624D01*
X125902784Y-87085544D01*
X126050354Y-87184147D01*
X126175853Y-87309646D01*
X126274456Y-87457216D01*
X126342376Y-87621188D01*
X126377000Y-87795259D01*
X126377000Y-87972741D01*
X126342376Y-88146812D01*
X126274456Y-88310784D01*
X126175853Y-88458354D01*
X126050354Y-88583853D01*
X125902784Y-88682456D01*
X125738812Y-88750376D01*
X125589512Y-88780073D01*
X125564742Y-88785000D01*
X125387258Y-88785000D01*
X125362488Y-88780073D01*
X125213188Y-88750376D01*
X125049216Y-88682456D01*
X124901646Y-88583853D01*
X124776147Y-88458354D01*
X124677544Y-88310784D01*
X124609624Y-88146812D01*
X124575000Y-87972741D01*
X124575000Y-87795259D01*
X124609624Y-87621188D01*
X124677544Y-87457216D01*
X124776147Y-87309646D01*
X124901646Y-87184147D01*
X125049216Y-87085544D01*
X125213188Y-87017624D01*
X125362488Y-86987927D01*
X125387258Y-86983000D01*
X125564742Y-86983000D01*
X125589512Y-86987927D01*
G37*
G36*
X135749512Y-86987927D02*
G01*
X135898812Y-87017624D01*
X136062784Y-87085544D01*
X136210354Y-87184147D01*
X136335853Y-87309646D01*
X136434456Y-87457216D01*
X136502376Y-87621188D01*
X136537000Y-87795259D01*
X136537000Y-87972741D01*
X136502376Y-88146812D01*
X136434456Y-88310784D01*
X136335853Y-88458354D01*
X136210354Y-88583853D01*
X136062784Y-88682456D01*
X135898812Y-88750376D01*
X135749512Y-88780073D01*
X135724742Y-88785000D01*
X135547258Y-88785000D01*
X135522488Y-88780073D01*
X135373188Y-88750376D01*
X135209216Y-88682456D01*
X135061646Y-88583853D01*
X134936147Y-88458354D01*
X134837544Y-88310784D01*
X134769624Y-88146812D01*
X134735000Y-87972741D01*
X134735000Y-87795259D01*
X134769624Y-87621188D01*
X134837544Y-87457216D01*
X134936147Y-87309646D01*
X135061646Y-87184147D01*
X135209216Y-87085544D01*
X135373188Y-87017624D01*
X135522488Y-86987927D01*
X135547258Y-86983000D01*
X135724742Y-86983000D01*
X135749512Y-86987927D01*
G37*
G36*
X133209512Y-86987927D02*
G01*
X133358812Y-87017624D01*
X133522784Y-87085544D01*
X133670354Y-87184147D01*
X133795853Y-87309646D01*
X133894456Y-87457216D01*
X133962376Y-87621188D01*
X133997000Y-87795259D01*
X133997000Y-87972741D01*
X133962376Y-88146812D01*
X133894456Y-88310784D01*
X133795853Y-88458354D01*
X133670354Y-88583853D01*
X133522784Y-88682456D01*
X133358812Y-88750376D01*
X133209512Y-88780073D01*
X133184742Y-88785000D01*
X133007258Y-88785000D01*
X132982488Y-88780073D01*
X132833188Y-88750376D01*
X132669216Y-88682456D01*
X132521646Y-88583853D01*
X132396147Y-88458354D01*
X132297544Y-88310784D01*
X132229624Y-88146812D01*
X132195000Y-87972741D01*
X132195000Y-87795259D01*
X132229624Y-87621188D01*
X132297544Y-87457216D01*
X132396147Y-87309646D01*
X132521646Y-87184147D01*
X132669216Y-87085544D01*
X132833188Y-87017624D01*
X132982488Y-86987927D01*
X133007258Y-86983000D01*
X133184742Y-86983000D01*
X133209512Y-86987927D01*
G37*
G36*
X130669512Y-86987927D02*
G01*
X130818812Y-87017624D01*
X130982784Y-87085544D01*
X131130354Y-87184147D01*
X131255853Y-87309646D01*
X131354456Y-87457216D01*
X131422376Y-87621188D01*
X131457000Y-87795259D01*
X131457000Y-87972741D01*
X131422376Y-88146812D01*
X131354456Y-88310784D01*
X131255853Y-88458354D01*
X131130354Y-88583853D01*
X130982784Y-88682456D01*
X130818812Y-88750376D01*
X130669512Y-88780073D01*
X130644742Y-88785000D01*
X130467258Y-88785000D01*
X130442488Y-88780073D01*
X130293188Y-88750376D01*
X130129216Y-88682456D01*
X129981646Y-88583853D01*
X129856147Y-88458354D01*
X129757544Y-88310784D01*
X129689624Y-88146812D01*
X129655000Y-87972741D01*
X129655000Y-87795259D01*
X129689624Y-87621188D01*
X129757544Y-87457216D01*
X129856147Y-87309646D01*
X129981646Y-87184147D01*
X130129216Y-87085544D01*
X130293188Y-87017624D01*
X130442488Y-86987927D01*
X130467258Y-86983000D01*
X130644742Y-86983000D01*
X130669512Y-86987927D01*
G37*
G36*
X128129512Y-86987927D02*
G01*
X128278812Y-87017624D01*
X128442784Y-87085544D01*
X128590354Y-87184147D01*
X128715853Y-87309646D01*
X128814456Y-87457216D01*
X128882376Y-87621188D01*
X128917000Y-87795259D01*
X128917000Y-87972741D01*
X128882376Y-88146812D01*
X128814456Y-88310784D01*
X128715853Y-88458354D01*
X128590354Y-88583853D01*
X128442784Y-88682456D01*
X128278812Y-88750376D01*
X128129512Y-88780073D01*
X128104742Y-88785000D01*
X127927258Y-88785000D01*
X127902488Y-88780073D01*
X127753188Y-88750376D01*
X127589216Y-88682456D01*
X127441646Y-88583853D01*
X127316147Y-88458354D01*
X127217544Y-88310784D01*
X127149624Y-88146812D01*
X127115000Y-87972741D01*
X127115000Y-87795259D01*
X127149624Y-87621188D01*
X127217544Y-87457216D01*
X127316147Y-87309646D01*
X127441646Y-87184147D01*
X127589216Y-87085544D01*
X127753188Y-87017624D01*
X127902488Y-86987927D01*
X127927258Y-86983000D01*
X128104742Y-86983000D01*
X128129512Y-86987927D01*
G37*
G36*
X123837000Y-88785000D02*
G01*
X122035000Y-88785000D01*
X122035000Y-86983000D01*
X123837000Y-86983000D01*
X123837000Y-88785000D01*
G37*
M02*
