M48
; DRILL file {KiCad (5.1.5)-3} date 2/11/2021 5:51:22 PM
; FORMAT={-:-/ absolute / inch / decimal}
; #@! TF.CreationDate,2021-02-11T17:51:22-06:00
; #@! TF.GenerationSoftware,Kicad,Pcbnew,(5.1.5)-3
; #@! TF.FileFunction,Plated,1,2,PTH
FMAT,2
INCH
T1C0.0157
T2C0.0394
%
G90
G05
T1
X4.8Y-3.54
X4.8071Y-3.7071
X4.86Y-4.3
X4.92Y-4.44
X4.975Y-3.925
X4.975Y-3.975
X4.975Y-4.025
X5.025Y-3.925
X5.025Y-3.975
X5.025Y-4.025
X5.075Y-3.925
X5.075Y-3.975
X5.075Y-4.025
X5.12Y-4.3
X5.15Y-3.925
X5.15Y-3.975
X5.15Y-4.025
X5.2Y-3.74
X5.2Y-4.14
X5.24Y-3.78
X5.28Y-4.3
X5.44Y-3.7
X5.44Y-3.9
X5.44Y-3.94
X5.575Y-4.375
X5.58Y-3.92
X5.58Y-4.06
X5.58Y-4.14
X5.6Y-3.7
X5.62Y-4.1
X5.64Y-3.56
X5.64Y-3.7715
X5.64Y-3.98
X5.64Y-4.04
X5.7Y-3.7
X5.8Y-3.7
X5.8Y-3.96
X5.8Y-4.02
X5.8Y-4.08
X5.82Y-3.82
X5.96Y-4.02
X6.025Y-4.375
X6.04Y-3.7
X6.04Y-3.76
X6.05Y-4.4
X6.05Y-4.4
X6.06Y-3.84
X6.06Y-3.96
X6.1Y-4.16
X6.28Y-3.8
X6.28Y-3.8
X6.4Y-4.18
X6.4Y-4.38
T2
X5.55Y-3.48
X5.65Y-3.48
X5.75Y-3.48
X6.625Y-3.82
X6.625Y-3.92
X4.825Y-4.375
X4.925Y-4.375
X5.54Y-3.64
X5.64Y-3.64
X5.74Y-3.64
X5.1Y-4.375
X5.2Y-4.375
X5.3Y-4.375
X4.84Y-3.46
X4.94Y-3.46
X5.04Y-3.46
X5.14Y-3.46
X5.24Y-3.46
X5.34Y-3.46
T0
M30
